<svg id="svg" version="1.1" xmlns="http://www.w3.org/2000/svg" xmlns:xlink="http://www.w3.org/1999/xlink" width="100" height="100" viewBox="0, 0, 400,400"><g id="svgg"><path id="path0" d="M159.337 14.502 C 159.231 14.673,158.949 14.692,158.711 14.545 C 158.461 14.391,158.391 14.461,158.545 14.711 C 158.692 14.949,158.642 15.250,158.433 15.380 C 158.224 15.509,158.149 16.210,158.267 16.938 L 158.482 18.262 152.741 18.213 C 146.339 18.159,146.118 18.240,146.167 20.625 L 146.200 22.240 142.200 22.220 L 138.200 22.200 138.150 23.900 C 138.123 24.835,138.078 25.758,138.050 25.952 C 138.023 26.146,136.926 26.263,135.614 26.213 C 134.302 26.164,133.323 26.275,133.437 26.460 C 133.552 26.646,133.187 26.623,132.626 26.410 C 130.758 25.700,129.700 26.758,130.410 28.626 C 130.697 29.381,130.676 29.571,130.331 29.357 C 130.018 29.164,129.948 29.287,130.119 29.733 C 130.339 30.307,130.090 30.384,128.287 30.299 L 126.200 30.200 126.200 32.200 C 126.200 33.956,126.097 34.205,125.354 34.243 C 124.889 34.266,124.276 34.429,123.993 34.605 C 123.653 34.815,123.574 34.765,123.763 34.461 C 123.954 34.151,123.753 34.043,123.159 34.133 C 122.602 34.218,122.218 34.602,122.133 35.159 C 122.046 35.730,122.156 35.951,122.439 35.776 C 122.745 35.587,122.769 35.731,122.515 36.252 C 122.314 36.663,122.181 37.391,122.219 37.869 C 122.278 38.615,122.159 38.689,121.380 38.392 C 119.111 37.530,118.193 38.107,118.274 40.347 C 118.347 42.342,118.320 42.395,117.369 42.157 C 116.790 42.011,116.121 42.133,115.733 42.455 C 115.372 42.755,114.970 42.955,114.839 42.900 C 114.707 42.845,114.584 42.935,114.565 43.100 C 114.546 43.265,114.414 43.670,114.272 44.000 C 113.851 44.977,114.212 46.725,115.033 47.688 C 115.650 48.411,115.663 48.480,115.100 48.044 C 114.478 47.562,114.399 47.608,114.394 48.451 C 114.385 49.786,113.854 50.472,113.063 50.169 C 112.693 50.027,112.094 50.156,111.733 50.455 C 111.372 50.755,110.970 50.955,110.839 50.900 C 110.707 50.845,110.597 50.935,110.594 51.100 C 110.591 51.265,110.473 51.580,110.332 51.800 C 109.922 52.441,110.360 57.728,110.847 58.029 C 111.121 58.198,111.138 58.360,110.894 58.452 C 110.676 58.533,110.366 59.208,110.206 59.950 C 109.988 60.958,110.037 61.224,110.397 61.002 C 110.755 60.781,110.780 60.897,110.493 61.452 C 110.280 61.863,110.168 63.100,110.244 64.200 C 110.446 67.146,110.448 111.286,110.245 111.488 C 109.280 112.453,112.171 114.435,113.179 113.500 C 113.610 113.100,113.661 113.100,113.433 113.504 C 113.204 113.908,120.804 113.987,151.774 113.904 L 190.400 113.800 190.400 116.100 L 190.400 118.400 131.100 118.433 C 67.065 118.468,67.362 118.469,66.250 118.138 C 65.837 118.015,65.603 118.081,65.729 118.284 C 65.858 118.494,65.318 118.594,64.479 118.515 C 61.298 118.215,52.178 118.159,51.800 118.437 C 51.580 118.599,51.220 118.747,51.000 118.766 C 50.780 118.785,50.584 118.935,50.565 119.100 C 50.546 119.265,50.399 119.696,50.238 120.059 C 50.078 120.421,49.979 120.961,50.020 121.259 C 50.197 122.545,50.014 123.041,49.600 122.400 C 49.318 121.964,49.211 121.943,49.206 122.324 C 49.203 122.612,49.034 122.745,48.832 122.620 C 48.199 122.229,43.587 122.098,43.360 122.464 C 43.242 122.656,42.932 122.691,42.672 122.542 C 42.413 122.394,42.333 122.419,42.497 122.599 C 42.660 122.779,42.631 123.123,42.432 123.363 C 41.896 124.011,42.386 125.929,43.143 126.147 C 43.504 126.251,42.558 126.306,41.040 126.268 C 37.934 126.191,37.731 126.420,38.371 129.268 C 38.635 130.443,38.591 130.695,38.150 130.526 C 37.848 130.409,37.597 130.559,37.594 130.857 C 37.590 131.217,37.489 131.253,37.294 130.965 C 36.792 130.223,35.429 130.122,34.795 130.781 C 34.139 131.463,34.220 132.824,34.946 133.294 C 35.266 133.501,35.245 133.590,34.876 133.594 C 34.588 133.597,34.471 133.792,34.616 134.026 C 34.794 134.315,34.122 134.412,32.540 134.326 L 30.200 134.200 30.313 136.232 L 30.427 138.264 28.592 138.187 C 27.222 138.130,26.808 138.244,26.958 138.635 C 27.079 138.951,26.948 139.078,26.627 138.955 C 26.222 138.800,26.120 139.210,26.199 140.676 C 26.296 142.476,26.239 142.604,25.302 142.661 C 23.853 142.749,22.679 144.105,22.637 145.737 C 22.618 146.501,22.469 147.043,22.306 146.942 C 22.143 146.841,22.119 147.554,22.252 148.526 C 22.494 150.292,22.493 150.294,21.087 150.557 C 19.389 150.876,18.698 151.626,18.642 153.210 C 18.619 153.863,18.510 154.399,18.400 154.399 C 18.290 154.400,18.200 155.930,18.200 157.800 C 18.200 159.670,18.357 161.200,18.549 161.200 C 18.741 161.200,18.687 161.454,18.430 161.764 C 18.083 162.182,18.079 162.401,18.414 162.609 C 18.699 162.785,18.417 163.161,17.655 163.625 C 16.989 164.030,16.143 164.820,15.776 165.381 C 15.408 165.941,14.878 166.400,14.596 166.400 C 14.303 166.400,14.087 166.870,14.090 167.500 C 14.100 169.320,14.400 170.447,14.809 170.195 C 15.020 170.064,15.510 170.144,15.897 170.373 C 16.503 170.732,16.462 170.777,15.600 170.695 C 14.485 170.589,14.014 173.734,14.268 179.600 C 14.330 181.030,14.355 182.830,14.325 183.600 C 14.294 184.370,14.278 185.495,14.288 186.100 C 14.436 194.952,14.379 212.790,14.200 213.255 C 14.071 213.591,14.142 214.650,14.357 215.607 C 14.616 216.759,14.612 217.603,14.347 218.099 C 14.086 218.587,14.078 219.467,14.323 220.617 C 14.530 221.590,14.542 222.288,14.350 222.169 C 14.157 222.050,14.000 222.403,14.000 222.953 C 14.000 223.503,14.142 224.040,14.315 224.147 C 14.571 224.305,14.600 226.891,14.362 228.273 C 14.175 229.355,14.454 230.065,14.987 229.860 C 15.310 229.736,15.681 229.807,15.811 230.017 C 15.941 230.228,15.596 230.400,15.045 230.400 C 14.131 230.400,14.048 230.542,14.106 232.000 C 14.141 232.880,14.312 233.600,14.485 233.600 C 14.658 233.600,14.800 233.968,14.800 234.418 C 14.800 235.770,16.651 237.324,17.890 237.013 C 18.710 236.807,18.858 236.864,18.565 237.275 C 18.225 237.750,18.170 238.410,18.341 239.924 C 18.374 240.220,18.617 240.325,18.900 240.165 C 19.300 239.939,19.300 239.990,18.900 240.421 C 18.100 241.283,18.250 243.291,19.100 243.106 C 19.485 243.021,19.751 242.725,19.690 242.447 C 19.630 242.168,19.757 242.050,19.973 242.183 C 20.661 242.608,19.950 243.600,18.957 243.600 C 18.357 243.600,18.000 243.833,18.000 244.224 C 18.000 244.606,18.193 244.738,18.500 244.565 C 18.883 244.349,18.891 244.401,18.536 244.785 C 17.489 245.919,19.310 248.985,21.288 249.419 C 22.427 249.670,22.482 249.771,22.285 251.242 C 22.170 252.099,22.194 252.801,22.338 252.801 C 22.482 252.802,22.614 253.441,22.631 254.221 C 22.666 255.858,23.725 257.122,25.200 257.288 C 25.750 257.349,26.300 257.534,26.422 257.698 C 26.545 257.862,27.117 258.035,27.694 258.083 C 28.270 258.131,28.662 258.299,28.565 258.457 C 28.467 258.615,28.573 258.860,28.800 259.000 C 29.027 259.140,29.109 259.423,28.983 259.628 C 28.856 259.832,29.014 260.000,29.334 260.000 C 29.653 260.000,30.007 260.240,30.119 260.533 C 30.232 260.827,30.079 261.067,29.779 261.067 C 29.480 261.067,29.328 260.917,29.441 260.733 C 29.629 260.429,29.046 260.235,28.300 260.353 C 28.029 260.395,27.832 259.461,27.953 258.700 C 28.026 258.237,27.420 258.344,26.821 258.900 C 26.390 259.300,26.339 259.300,26.565 258.900 C 26.720 258.625,26.652 258.400,26.412 258.400 C 25.867 258.400,26.101 261.061,26.699 261.659 C 26.936 261.896,27.872 262.020,28.777 261.934 L 30.424 261.777 30.312 263.788 C 30.205 265.718,30.245 265.805,31.300 265.927 C 32.005 266.008,32.402 265.864,32.406 265.527 C 32.411 265.140,32.515 265.160,32.800 265.600 C 33.013 265.930,33.191 266.059,33.194 265.886 C 33.197 265.713,33.548 265.758,33.972 265.985 C 34.610 266.327,34.684 266.609,34.398 267.607 C 34.153 268.463,34.180 268.736,34.494 268.542 C 34.782 268.364,34.844 268.508,34.673 268.955 C 34.528 269.333,34.572 269.541,34.770 269.418 C 34.969 269.295,35.216 269.421,35.320 269.698 C 35.451 270.048,35.703 269.959,36.155 269.400 L 36.802 268.600 36.526 269.400 C 36.272 270.136,36.310 270.152,37.002 269.600 C 37.439 269.251,37.628 269.209,37.453 269.500 C 37.267 269.810,37.378 270.000,37.747 270.000 C 38.179 270.000,38.299 270.339,38.185 271.237 C 38.056 272.258,38.145 272.430,38.692 272.220 C 39.280 271.994,39.276 272.053,38.652 272.743 C 37.826 273.655,38.270 274.094,39.909 273.987 C 42.307 273.829,42.481 273.918,42.208 275.162 C 42.060 275.836,42.134 276.435,42.383 276.590 C 42.620 276.736,42.719 277.008,42.603 277.195 C 42.488 277.382,42.904 277.647,43.529 277.784 C 44.959 278.099,47.593 277.935,47.852 277.516 C 47.959 277.342,48.352 277.213,48.724 277.228 C 49.275 277.251,49.252 277.320,48.600 277.600 C 47.928 277.889,48.005 277.948,49.087 277.972 C 50.061 277.993,50.319 278.146,50.145 278.600 C 50.018 278.930,50.053 279.515,50.223 279.900 C 50.392 280.285,50.546 280.762,50.565 280.960 C 50.612 281.446,51.952 281.938,53.324 281.972 C 53.976 281.988,54.344 281.832,54.200 281.600 C 54.064 281.380,54.143 281.200,54.376 281.200 C 54.609 281.200,54.800 281.367,54.800 281.572 C 54.800 282.286,118.052 282.122,119.074 281.405 C 119.716 280.954,120.024 280.915,120.236 281.258 C 120.408 281.537,120.350 281.616,120.089 281.455 C 119.851 281.308,119.542 281.370,119.404 281.593 C 118.948 282.331,120.384 282.016,121.200 281.200 C 122.016 280.384,122.331 278.948,121.593 279.404 C 121.370 279.542,121.308 279.851,121.455 280.089 C 121.616 280.350,121.537 280.408,121.258 280.236 C 120.914 280.023,120.950 279.720,121.396 279.085 C 121.917 278.341,122.000 275.206,122.000 256.282 C 122.000 233.116,122.026 232.775,123.775 233.446 C 124.738 233.815,125.692 232.819,125.418 231.730 C 125.288 231.212,125.366 230.800,125.592 230.800 C 126.133 230.800,126.117 228.677,125.573 228.133 C 125.271 227.831,125.329 227.636,125.773 227.466 C 126.281 227.271,126.400 227.545,126.402 228.913 C 126.441 268.582,126.343 334.325,126.243 335.800 C 126.167 336.900,126.268 338.115,126.467 338.500 C 126.698 338.948,126.679 339.200,126.414 339.200 C 125.765 339.200,125.929 340.054,126.700 340.686 C 127.085 341.001,127.175 341.145,126.900 341.006 C 126.387 340.746,126.164 342.548,126.331 345.600 C 126.525 349.157,126.843 349.743,128.447 349.508 C 129.081 349.415,129.600 349.507,129.600 349.712 C 129.600 349.918,129.854 349.988,130.165 349.869 C 130.606 349.700,130.663 349.887,130.428 350.726 C 130.262 351.317,130.196 352.430,130.281 353.200 C 130.367 353.970,130.437 355.080,130.437 355.667 C 130.438 357.108,131.317 357.751,132.933 357.488 L 134.260 357.273 134.175 359.137 C 134.068 361.503,134.490 362.000,136.605 362.000 L 138.312 362.000 138.256 363.900 L 138.200 365.800 140.000 365.923 C 140.990 365.991,142.278 366.081,142.862 366.123 C 144.054 366.209,143.982 366.800,142.780 366.800 C 142.171 366.800,142.033 367.037,142.129 367.918 C 142.273 369.229,142.687 370.000,143.247 370.000 C 143.467 370.000,143.512 369.775,143.347 369.500 C 143.129 369.137,143.226 369.145,143.699 369.529 C 144.058 369.820,144.768 370.000,145.276 369.929 C 146.064 369.819,146.200 369.976,146.202 371.000 C 146.202 371.660,146.348 372.425,146.525 372.700 C 146.702 372.975,146.702 373.213,146.524 373.228 C 144.946 373.365,148.522 373.950,151.071 373.972 L 154.342 374.000 154.185 375.237 C 154.056 376.258,154.145 376.430,154.692 376.220 C 155.262 376.001,155.252 376.080,154.623 376.774 C 153.635 377.866,154.210 378.048,158.000 377.846 C 161.836 377.641,161.612 377.698,161.345 377.000 C 161.218 376.670,161.324 376.400,161.581 376.400 C 161.837 376.400,161.952 376.553,161.836 376.741 C 161.720 376.929,161.870 377.416,162.168 377.824 C 162.467 378.233,162.622 378.799,162.513 379.083 C 162.404 379.367,162.524 379.600,162.781 379.600 C 163.037 379.600,163.144 379.432,163.017 379.228 C 162.891 379.023,162.998 378.725,163.255 378.566 C 163.562 378.376,163.616 378.451,163.412 378.781 C 163.180 379.156,163.330 379.213,164.000 379.000 C 164.613 378.805,164.813 378.855,164.626 379.157 C 164.476 379.401,164.104 379.600,163.799 379.600 C 163.463 379.600,163.306 379.911,163.398 380.392 C 163.482 380.827,163.377 381.290,163.166 381.421 C 162.954 381.552,162.806 381.511,162.837 381.330 C 162.967 380.584,162.776 380.000,162.403 380.000 C 162.184 380.000,162.067 380.405,162.142 380.900 C 162.303 381.954,165.180 382.259,165.514 381.258 C 165.645 380.864,165.436 380.781,164.747 380.954 C 164.226 381.085,164.025 381.089,164.300 380.963 C 164.575 380.837,164.800 380.478,164.800 380.167 C 164.800 379.726,164.963 379.756,165.531 380.300 C 165.933 380.685,166.184 381.225,166.088 381.500 C 165.963 381.861,166.537 382.000,168.157 382.000 C 169.922 382.000,170.400 382.133,170.400 382.624 C 170.400 382.967,170.563 383.146,170.763 383.023 C 170.962 382.900,171.040 383.127,170.935 383.527 C 170.702 384.419,171.760 385.378,172.616 385.049 C 173.023 384.893,173.142 384.970,172.958 385.268 C 172.766 385.579,172.951 385.654,173.537 385.500 C 174.012 385.376,174.400 385.429,174.400 385.616 C 174.400 386.014,241.002 385.931,241.400 385.533 C 241.547 385.386,241.766 384.531,241.886 383.633 C 242.007 382.735,242.262 381.990,242.453 381.977 C 242.644 381.965,245.135 381.944,247.989 381.931 C 253.398 381.908,254.145 381.682,253.983 380.124 C 253.791 378.273,253.973 378.000,255.400 378.000 C 256.250 378.000,256.802 377.804,256.806 377.500 C 256.810 377.155,256.903 377.136,257.106 377.439 C 257.268 377.681,258.390 377.861,259.600 377.839 L 261.800 377.800 261.828 376.000 C 261.854 374.354,261.949 374.189,262.928 374.073 C 263.518 374.004,264.000 373.768,264.000 373.550 C 264.000 373.331,264.225 373.294,264.500 373.466 C 265.311 373.974,268.800 374.070,268.800 373.584 C 268.800 373.347,268.975 373.261,269.188 373.393 C 269.657 373.683,270.178 371.840,269.861 371.014 C 269.557 370.222,270.203 369.887,272.127 369.839 C 273.114 369.815,273.805 369.586,273.919 369.244 C 274.047 368.860,273.934 368.791,273.552 369.021 C 273.119 369.282,273.096 369.229,273.447 368.777 C 273.693 368.460,273.906 367.570,273.920 366.800 C 273.944 365.492,273.908 365.451,273.373 366.176 C 273.058 366.604,272.800 366.761,272.800 366.525 C 272.800 365.872,273.888 365.094,274.168 365.548 C 274.299 365.760,275.170 365.899,276.103 365.857 L 277.800 365.779 277.789 363.890 C 277.777 361.921,277.823 361.878,279.831 361.984 C 281.379 362.066,282.102 361.219,281.932 359.520 C 281.821 358.407,281.941 358.180,282.700 358.072 C 283.195 358.002,283.600 357.808,283.600 357.640 C 283.600 357.473,284.005 357.351,284.500 357.368 C 285.144 357.391,285.400 357.172,285.400 356.600 C 285.400 356.160,285.181 355.843,284.914 355.895 C 284.611 355.955,284.526 355.737,284.688 355.315 C 284.850 354.891,285.006 354.819,285.107 355.120 C 285.504 356.311,286.050 355.421,285.977 353.700 C 285.835 350.304,285.914 350.000,286.945 350.000 C 287.736 350.000,287.858 349.838,287.698 349.000 C 287.572 348.342,287.241 348.000,286.730 348.000 C 286.244 348.000,286.060 348.173,286.238 348.462 C 286.415 348.748,286.348 348.815,286.062 348.638 C 285.324 348.182,285.526 347.666,286.496 347.528 C 287.516 347.382,288.010 346.000,287.042 346.000 C 286.658 346.000,286.512 346.227,286.655 346.600 C 286.782 346.930,286.702 347.200,286.478 347.200 C 285.892 347.200,286.169 345.877,286.800 345.667 C 287.570 345.410,288.496 346.803,287.974 347.432 C 287.686 347.778,287.707 348.019,288.042 348.226 C 288.330 348.404,288.419 348.355,288.264 348.104 C 287.908 347.528,289.001 347.161,289.522 347.682 C 289.815 347.975,289.953 339.187,289.980 318.621 C 290.011 294.853,289.920 289.197,289.509 289.429 C 289.101 289.660,289.099 289.610,289.500 289.179 C 290.146 288.483,290.146 287.202,289.500 287.194 C 289.161 287.190,289.190 287.068,289.588 286.816 C 289.912 286.611,290.051 286.318,289.898 286.165 C 289.745 286.011,289.377 286.087,289.080 286.333 C 288.699 286.650,288.416 286.656,288.116 286.356 C 287.882 286.122,287.597 286.081,287.483 286.265 C 287.370 286.449,269.844 286.553,248.538 286.497 L 209.800 286.393 209.937 284.197 L 210.074 282.000 271.337 281.954 C 305.032 281.929,334.435 281.945,336.677 281.991 C 341.087 282.082,341.935 281.886,341.163 280.955 C 340.775 280.488,340.813 280.430,341.366 280.642 C 341.740 280.786,341.967 281.110,341.869 281.363 C 341.747 281.681,342.650 281.851,344.791 281.913 L 347.889 282.002 347.687 280.942 C 347.534 280.142,347.612 279.960,348.004 280.202 C 348.367 280.427,348.427 280.367,348.202 280.004 C 347.960 279.612,348.142 279.534,348.941 279.687 C 349.845 279.859,350.000 279.750,350.000 278.945 C 350.000 278.149,350.205 277.997,351.300 277.982 C 357.700 277.896,357.577 277.940,357.883 275.657 C 358.088 274.129,358.845 273.334,359.633 273.820 C 360.149 274.139,362.029 272.146,361.800 271.522 C 361.429 270.512,362.322 269.836,364.073 269.801 L 365.797 269.766 365.790 267.764 L 365.782 265.762 367.791 265.781 L 369.800 265.800 369.805 264.000 C 369.809 262.425,369.926 262.184,370.736 262.068 C 371.401 261.973,371.596 261.749,371.430 261.268 C 371.226 260.682,371.265 260.686,371.743 261.300 C 372.404 262.149,372.687 262.171,373.429 261.429 C 374.171 260.687,374.149 260.404,373.300 259.743 C 372.633 259.224,372.633 259.210,373.300 259.442 C 373.850 259.633,374.000 259.462,374.000 258.643 C 374.000 257.965,374.218 257.600,374.624 257.600 C 374.967 257.600,375.146 257.437,375.023 257.237 C 374.900 257.038,375.127 256.960,375.527 257.065 C 376.419 257.298,377.378 256.240,377.049 255.384 C 376.917 255.040,376.967 254.856,377.159 254.975 C 377.352 255.094,377.613 254.794,377.739 254.310 C 377.869 253.816,377.757 253.293,377.485 253.120 C 377.123 252.891,377.120 252.811,377.472 252.806 C 377.732 252.803,377.934 252.305,377.922 251.700 C 377.879 249.642,378.000 249.376,379.168 248.935 C 379.937 248.644,380.620 247.905,381.168 246.772 C 382.179 244.679,382.190 244.553,381.300 245.251 C 380.653 245.758,380.645 245.742,381.200 245.037 C 381.778 244.302,381.845 243.799,381.951 239.388 C 381.996 237.546,382.100 237.338,383.178 236.931 C 384.684 236.362,386.415 233.032,385.597 232.276 C 385.193 231.902,385.151 231.920,385.403 232.362 C 385.632 232.763,385.575 232.831,385.201 232.601 C 384.787 232.345,384.816 232.178,385.339 231.795 C 386.113 231.229,386.204 229.964,385.520 229.280 C 385.174 228.934,385.168 228.800,385.496 228.800 C 385.834 228.800,385.955 221.501,385.960 200.786 C 385.966 178.978,385.861 172.837,385.484 173.063 C 385.116 173.284,385.109 173.216,385.454 172.777 C 386.164 171.876,386.155 166.400,385.444 166.400 C 385.077 166.400,384.947 166.124,385.078 165.623 C 385.309 164.741,383.617 162.800,382.618 162.800 C 381.975 162.800,381.812 161.251,381.954 156.500 C 381.988 155.345,381.878 154.400,381.708 154.400 C 381.539 154.400,381.373 153.939,381.341 153.376 C 381.268 152.118,380.263 150.953,378.971 150.628 C 377.977 150.379,377.809 149.767,377.992 147.055 C 378.038 146.382,377.906 146.011,377.672 146.155 C 377.433 146.303,377.364 146.057,377.500 145.538 C 377.645 144.985,377.573 144.769,377.300 144.938 C 377.039 145.100,376.948 144.920,377.065 144.473 C 377.298 143.581,376.240 142.622,375.384 142.951 C 374.984 143.104,374.858 143.029,375.036 142.742 C 375.228 142.431,374.907 142.352,373.995 142.486 C 372.890 142.648,372.784 142.601,373.338 142.196 C 374.117 141.626,374.244 138.998,373.515 138.547 C 372.698 138.043,370.400 137.943,370.400 138.412 C 370.400 138.652,370.625 138.720,370.900 138.565 C 371.300 138.339,371.300 138.390,370.900 138.821 C 370.344 139.420,370.237 140.026,370.700 139.953 C 371.461 139.832,372.395 140.029,372.353 140.300 C 372.220 141.139,372.449 141.617,372.862 141.362 C 373.148 141.185,373.215 141.252,373.038 141.538 C 372.627 142.204,372.000 142.106,372.000 141.376 C 372.000 141.033,371.832 140.856,371.628 140.983 C 371.423 141.109,371.140 141.027,371.000 140.800 C 370.860 140.573,370.613 140.468,370.452 140.568 C 370.206 140.720,369.994 139.488,369.890 137.300 C 369.877 137.025,369.672 136.797,369.433 136.794 C 369.195 136.791,369.241 136.635,369.535 136.449 C 370.930 135.565,369.882 134.195,367.900 134.311 C 366.013 134.421,365.704 134.159,365.963 132.670 C 365.994 132.489,365.835 132.455,365.610 132.594 C 365.384 132.733,365.200 132.657,365.200 132.424 C 365.200 132.191,365.380 132.000,365.600 132.000 C 365.820 132.000,366.000 131.809,366.000 131.576 C 366.000 131.343,365.789 131.283,365.532 131.442 C 365.220 131.635,365.147 131.516,365.312 131.086 C 365.494 130.611,365.389 130.506,364.914 130.688 C 364.549 130.828,364.372 130.769,364.506 130.552 C 364.647 130.324,364.185 130.232,363.372 130.327 C 362.311 130.451,362.000 130.341,362.000 129.844 C 362.000 129.152,361.597 129.017,360.972 129.500 C 360.758 129.665,360.902 129.501,361.292 129.136 C 362.632 127.879,362.064 125.456,360.715 126.677 C 360.011 127.314,359.981 127.314,360.226 126.678 C 360.498 125.967,359.819 125.721,359.411 126.383 C 358.935 127.153,357.999 126.291,357.972 125.057 C 357.946 123.917,357.295 121.720,357.228 122.549 C 357.213 122.741,356.975 122.715,356.700 122.491 C 356.191 122.077,354.068 122.110,351.670 122.568 C 350.803 122.734,350.428 122.679,350.593 122.411 C 350.733 122.185,350.691 122.000,350.500 122.000 C 350.310 122.000,349.984 121.235,349.777 120.300 C 349.570 119.365,349.190 118.600,348.933 118.600 C 348.677 118.600,348.340 118.473,348.185 118.318 C 347.906 118.040,341.865 118.278,340.900 118.605 C 340.625 118.698,340.400 118.605,340.400 118.397 C 340.400 117.987,335.016 118.219,334.302 118.661 C 334.032 118.828,333.996 118.730,334.204 118.394 C 334.446 118.002,334.346 117.935,333.821 118.137 C 332.966 118.465,280.906 118.513,280.377 118.186 C 279.457 117.617,277.873 119.996,278.621 120.823 C 279.027 121.271,279.129 121.600,278.862 121.600 C 278.517 121.600,278.400 128.246,278.400 147.757 L 278.400 173.913 277.300 174.235 C 276.695 174.412,275.982 174.569,275.715 174.583 C 275.449 174.598,274.999 174.859,274.715 175.163 C 274.321 175.587,274.319 175.650,274.703 175.433 C 275.102 175.208,275.109 175.362,274.738 176.176 C 274.481 176.741,274.212 177.145,274.141 177.074 C 274.070 177.003,274.003 149.282,273.993 115.472 C 273.982 81.663,273.831 54.000,273.656 54.000 C 273.481 54.000,273.418 53.458,273.515 52.796 C 273.741 51.255,273.059 50.446,271.568 50.489 C 270.032 50.532,270.105 50.674,269.839 47.144 C 269.509 42.758,269.477 42.703,267.200 42.632 C 266.299 42.603,266.188 42.416,266.079 40.732 C 265.935 38.488,265.249 37.732,263.977 38.412 C 263.467 38.685,263.209 38.709,263.358 38.469 C 263.497 38.242,263.217 37.999,262.735 37.929 C 261.986 37.819,261.853 37.536,261.829 36.000 L 261.800 34.200 259.808 34.200 L 257.816 34.200 257.936 32.541 C 258.060 30.813,257.697 30.310,256.207 30.152 C 255.038 30.028,253.951 30.398,254.218 30.829 C 254.344 31.033,254.267 31.200,254.047 31.200 C 253.827 31.200,253.536 31.020,253.400 30.800 C 253.264 30.580,253.343 30.400,253.576 30.400 C 253.809 30.400,253.987 29.815,253.972 29.100 C 253.940 27.639,253.513 26.326,253.084 26.370 C 252.928 26.387,252.665 26.375,252.500 26.344 C 251.431 26.144,246.909 26.250,247.046 26.472 C 247.138 26.622,246.985 26.876,246.707 27.036 C 246.428 27.197,246.333 27.181,246.497 27.001 C 246.660 26.821,246.579 26.416,246.317 26.100 C 246.056 25.785,245.883 24.906,245.934 24.147 C 246.052 22.401,245.716 21.806,244.964 22.430 C 244.559 22.766,244.400 22.772,244.400 22.449 C 244.400 22.202,244.220 22.000,244.000 22.000 C 243.780 22.000,243.600 22.360,243.600 22.800 C 243.600 23.240,243.426 23.600,243.213 23.600 C 242.999 23.600,242.922 23.348,243.040 23.040 C 243.158 22.733,243.062 22.362,242.827 22.217 C 242.592 22.072,242.400 22.139,242.400 22.366 C 242.400 22.639,242.069 22.655,241.434 22.413 C 240.716 22.140,240.413 22.190,240.252 22.608 C 240.067 23.092,239.883 23.092,238.947 22.606 C 238.348 22.295,237.664 22.148,237.429 22.279 C 237.193 22.410,237.217 22.283,237.481 21.997 C 237.815 21.636,237.842 21.252,237.567 20.739 C 237.294 20.228,237.308 20.000,237.614 20.000 C 237.857 20.000,237.998 19.603,237.928 19.119 C 237.793 18.193,237.715 18.178,233.676 18.334 C 232.657 18.373,232.053 18.562,232.197 18.795 C 232.337 19.022,232.177 19.089,231.823 18.954 C 231.483 18.823,231.299 18.563,231.415 18.375 C 231.531 18.188,231.101 18.101,230.459 18.182 C 229.448 18.310,229.322 18.220,229.510 17.502 C 229.647 16.977,229.571 16.771,229.300 16.938 C 229.039 17.100,228.948 16.920,229.065 16.473 C 229.298 15.581,228.240 14.622,227.384 14.951 C 227.024 15.089,226.862 15.023,227.003 14.795 C 227.137 14.578,226.922 14.387,226.524 14.371 C 226.126 14.356,225.125 14.261,224.300 14.160 C 223.062 14.010,222.799 14.102,222.794 14.689 C 222.789 15.218,222.703 15.266,222.457 14.879 C 222.225 14.513,221.393 14.405,219.664 14.514 C 218.309 14.599,217.200 14.519,217.200 14.335 C 217.200 14.151,216.739 14.000,216.176 14.000 C 215.613 14.000,215.254 14.163,215.377 14.363 C 215.500 14.562,214.974 14.533,214.209 14.298 C 213.264 14.008,212.526 14.000,211.916 14.272 C 211.362 14.520,210.427 14.541,209.483 14.329 C 208.639 14.140,207.787 14.085,207.588 14.207 C 207.224 14.432,187.352 14.449,176.100 14.233 C 172.745 14.169,170.000 14.265,170.000 14.446 C 170.000 14.627,169.700 14.660,169.334 14.519 C 168.938 14.367,168.769 14.426,168.917 14.665 C 169.053 14.886,168.911 15.067,168.600 15.067 C 168.289 15.067,168.137 14.903,168.260 14.702 C 168.387 14.498,167.546 14.367,166.343 14.403 C 165.164 14.439,164.020 14.425,163.800 14.373 C 162.779 14.130,159.508 14.225,159.337 14.502 M164.543 15.685 C 164.365 15.968,164.249 16.560,164.284 17.000 C 164.335 17.642,164.308 17.661,164.144 17.095 C 164.025 16.686,163.742 16.508,163.470 16.672 C 163.207 16.829,163.242 16.655,163.549 16.277 C 164.222 15.447,163.704 15.382,162.817 16.184 C 162.246 16.701,162.171 16.687,162.171 16.060 C 162.171 15.541,162.530 15.328,163.518 15.261 C 164.531 15.193,164.785 15.298,164.543 15.685 M237.350 19.281 C 237.243 19.454,236.760 19.787,236.278 20.020 C 235.467 20.412,235.455 20.400,236.121 19.862 C 236.661 19.427,236.711 19.231,236.321 19.081 C 236.035 18.971,236.193 18.901,236.672 18.924 C 237.152 18.947,237.457 19.108,237.350 19.281 M114.225 53.449 C 114.021 54.578,113.600 55.247,113.600 54.443 C 113.600 54.170,113.392 54.081,113.132 54.242 C 112.874 54.401,113.009 54.058,113.432 53.478 C 114.394 52.159,114.460 52.156,114.225 53.449 M156.794 58.479 C 156.798 58.089,157.605 57.978,160.023 58.036 C 162.289 58.091,163.121 58.239,162.823 58.537 C 162.590 58.770,162.400 59.464,162.400 60.080 C 162.400 61.168,162.339 61.200,160.243 61.200 C 157.015 61.200,156.711 60.029,159.913 59.928 L 162.200 59.856 160.200 59.716 C 159.100 59.639,157.930 59.462,157.600 59.323 C 157.270 59.183,156.835 59.054,156.633 59.035 C 156.432 59.016,156.193 58.730,156.103 58.400 C 155.957 57.867,155.986 57.867,156.363 58.400 C 156.673 58.837,156.789 58.859,156.794 58.479 M165.200 61.400 C 164.784 61.901,164.840 62.000,165.538 62.000 C 166.118 62.000,166.304 62.185,166.145 62.600 C 166.018 62.930,166.053 63.515,166.223 63.900 C 166.392 64.285,166.546 64.762,166.565 64.960 C 166.612 65.446,167.952 65.938,169.324 65.972 C 169.976 65.988,170.344 65.832,170.200 65.600 C 170.064 65.380,170.163 65.200,170.419 65.200 C 170.700 65.200,170.778 65.479,170.615 65.900 C 169.876 67.810,169.908 73.644,170.660 74.232 C 171.197 74.653,171.235 74.783,170.800 74.706 C 170.328 74.623,170.216 75.004,170.273 76.485 L 170.347 78.369 169.120 78.124 C 168.170 77.934,167.939 78.005,168.096 78.439 C 168.208 78.748,168.465 78.967,168.667 78.928 C 168.869 78.888,169.061 79.218,169.095 79.662 C 169.135 80.201,168.970 80.397,168.598 80.255 C 168.240 80.117,168.117 80.240,168.255 80.598 C 168.397 80.970,168.201 81.135,167.662 81.095 C 167.218 81.061,166.888 80.869,166.928 80.667 C 166.967 80.465,166.748 80.208,166.439 80.096 C 166.010 79.940,165.933 80.166,166.112 81.062 L 166.346 82.230 161.073 82.215 C 158.173 82.207,155.215 82.331,154.500 82.490 C 153.685 82.672,153.200 82.626,153.200 82.366 C 153.200 82.139,153.380 82.064,153.600 82.200 C 153.832 82.344,153.988 81.976,153.972 81.324 C 153.938 79.952,153.446 78.612,152.960 78.565 C 152.762 78.546,152.285 78.392,151.900 78.223 C 151.515 78.053,150.930 78.018,150.600 78.145 C 150.181 78.305,149.993 78.107,149.975 77.487 C 149.951 76.616,149.961 67.480,149.987 66.500 C 149.994 66.225,150.425 66.000,150.945 66.000 C 151.750 66.000,151.859 65.845,151.687 64.941 C 151.534 64.142,151.612 63.960,152.004 64.202 C 152.367 64.427,152.427 64.367,152.202 64.004 C 151.960 63.612,152.142 63.534,152.941 63.687 C 153.845 63.859,154.000 63.750,154.000 62.945 C 154.000 62.319,154.237 61.993,154.700 61.979 C 155.085 61.968,157.409 61.961,159.863 61.965 C 163.298 61.969,164.439 61.835,164.812 61.385 C 165.079 61.063,165.388 60.800,165.498 60.800 C 165.608 60.800,165.474 61.070,165.200 61.400 M151.969 62.100 C 152.404 63.243,151.484 64.399,150.371 64.108 C 149.162 63.792,149.138 63.372,150.330 63.387 C 151.238 63.398,151.398 63.233,151.384 62.300 C 151.365 60.965,151.516 60.913,151.969 62.100 M169.778 62.264 C 170.010 62.004,170.161 61.861,170.114 61.948 C 170.067 62.034,170.210 62.444,170.431 62.858 C 170.653 63.273,170.692 63.588,170.517 63.558 C 169.697 63.421,169.548 63.658,170.051 64.300 C 170.537 64.919,170.527 64.943,169.963 64.503 C 169.613 64.230,169.208 64.125,169.063 64.270 C 168.918 64.415,168.800 64.323,168.800 64.067 C 168.800 63.810,169.016 63.600,169.280 63.600 C 169.641 63.600,169.646 63.486,169.301 63.141 C 168.955 62.795,168.598 62.840,167.858 63.325 C 166.945 63.923,166.885 63.920,167.007 63.285 C 167.080 62.908,167.155 62.420,167.176 62.200 C 167.196 61.980,167.369 62.048,167.561 62.351 C 167.973 63.001,168.915 62.563,168.592 61.872 C 168.470 61.613,168.592 61.701,168.864 62.069 C 169.238 62.577,169.458 62.624,169.778 62.264 M151.086 62.542 C 150.874 63.179,150.133 63.285,150.133 62.678 C 150.133 62.378,150.378 62.133,150.678 62.133 C 150.977 62.133,151.161 62.317,151.086 62.542 M152.444 64.547 C 152.087 64.977,152.080 65.202,152.415 65.410 C 153.068 65.813,153.877 64.917,153.343 64.383 C 153.054 64.094,152.778 64.144,152.444 64.547 M147.000 68.700 C 147.000 68.938,147.135 69.268,147.300 69.433 C 147.465 69.598,147.630 70.738,147.667 71.967 L 147.734 74.200 147.967 71.912 C 148.303 68.606,149.085 69.451,149.266 73.318 L 149.413 76.437 148.207 76.318 C 147.322 76.232,147.016 76.006,147.060 75.473 C 147.096 75.036,146.918 74.823,146.616 74.939 C 146.239 75.083,146.092 74.327,146.035 71.966 C 145.978 69.596,146.089 68.798,146.479 68.794 C 146.859 68.789,146.837 68.673,146.400 68.363 C 145.867 67.986,145.867 67.957,146.400 68.103 C 146.730 68.193,147.000 68.462,147.000 68.700 M147.502 75.133 C 147.374 75.619,147.527 75.869,147.955 75.873 C 148.675 75.880,149.253 75.210,148.950 74.719 C 148.589 74.135,147.696 74.390,147.502 75.133 M166.637 78.740 C 166.178 79.483,167.396 80.528,167.947 79.864 C 168.365 79.360,168.314 79.182,167.650 78.827 C 167.209 78.591,166.753 78.552,166.637 78.740 M151.306 79.887 C 150.835 80.605,150.795 80.955,151.141 81.301 C 151.486 81.646,151.600 81.641,151.600 81.280 C 151.600 81.016,151.810 80.800,152.067 80.800 C 152.323 80.800,152.415 80.918,152.270 81.063 C 152.125 81.208,152.230 81.613,152.503 81.963 C 152.943 82.527,152.919 82.537,152.300 82.051 C 151.658 81.548,151.421 81.697,151.558 82.517 C 151.588 82.692,151.273 82.653,150.858 82.431 C 150.444 82.210,150.034 82.067,149.948 82.114 C 149.861 82.161,150.004 82.010,150.264 81.778 C 150.624 81.458,150.577 81.243,150.069 80.885 C 149.628 80.573,149.587 80.445,149.950 80.506 C 150.253 80.558,150.583 80.375,150.683 80.100 C 150.784 79.825,150.627 79.597,150.333 79.594 C 149.903 79.589,149.900 79.524,150.316 79.261 C 151.445 78.544,151.969 78.875,151.306 79.887 M170.496 80.541 C 170.751 80.383,170.807 80.466,170.634 80.745 C 170.475 81.002,170.222 81.139,170.072 81.049 C 169.731 80.842,168.775 81.842,169.051 82.117 C 169.162 82.229,169.033 82.456,168.765 82.622 C 168.453 82.815,168.379 82.757,168.562 82.462 C 168.719 82.208,168.663 82.000,168.438 82.000 C 168.213 82.000,168.427 81.595,168.914 81.100 C 169.401 80.605,169.860 80.336,169.934 80.502 C 170.008 80.669,170.261 80.686,170.496 80.541 M162.200 83.038 C 160.326 83.339,157.691 83.377,157.862 83.100 C 157.964 82.935,159.162 82.825,160.524 82.854 C 161.886 82.884,162.640 82.967,162.200 83.038 M347.306 119.887 C 346.835 120.605,346.795 120.955,347.141 121.301 C 347.486 121.646,347.600 121.641,347.600 121.280 C 347.600 121.016,347.750 120.800,347.933 120.800 C 348.117 120.800,348.267 121.070,348.267 121.400 C 348.267 121.730,348.176 121.910,348.066 121.799 C 347.955 121.689,347.558 121.876,347.182 122.216 C 346.565 122.775,346.475 122.772,346.252 122.192 C 346.117 121.838,345.826 121.660,345.607 121.795 C 345.382 121.935,345.307 121.786,345.436 121.452 C 345.560 121.127,345.918 120.764,346.231 120.643 C 347.063 120.324,346.936 119.467,346.100 119.758 C 345.442 119.987,345.441 119.970,346.085 119.468 C 347.304 118.518,348.038 118.770,347.306 119.887 M46.765 124.500 C 46.672 124.555,45.967 125.140,45.198 125.800 L 43.800 127.000 44.975 125.700 C 45.621 124.985,46.326 124.400,46.542 124.400 C 46.757 124.400,46.857 124.445,46.765 124.500 M20.668 151.380 C 20.265 151.686,19.670 152.265,19.346 152.668 C 18.796 153.350,18.785 153.340,19.183 152.517 C 19.418 152.032,19.923 151.452,20.305 151.229 C 21.309 150.644,21.522 150.733,20.668 151.380 M15.782 163.782 C 15.242 164.322,14.811 165.087,14.825 165.482 C 14.848 166.114,14.890 166.104,15.178 165.400 C 15.542 164.511,16.681 163.422,17.600 163.084 C 18.066 162.912,18.040 162.856,17.482 162.832 C 17.087 162.814,16.322 163.242,15.782 163.782 M383.874 164.070 C 384.383 164.548,384.800 165.080,384.800 165.252 C 384.800 165.423,384.342 165.106,383.782 164.546 C 383.194 163.958,382.510 163.626,382.161 163.759 C 381.819 163.891,381.664 163.820,381.803 163.595 C 382.188 162.972,382.872 163.128,383.874 164.070 M382.686 167.086 C 382.309 167.463,382.000 167.568,382.000 167.319 C 382.000 167.070,382.225 166.791,382.500 166.698 C 382.886 166.569,382.868 166.355,382.422 165.765 C 381.866 165.030,381.873 165.027,382.608 165.700 C 383.329 166.361,383.333 166.438,382.686 167.086 M383.784 167.650 C 383.627 168.145,383.671 168.403,383.890 168.268 C 384.097 168.140,384.267 168.294,384.267 168.611 C 384.267 169.007,384.120 169.065,383.797 168.797 C 383.538 168.583,383.193 168.540,383.030 168.703 C 382.600 169.133,382.926 167.924,383.400 167.331 C 383.983 166.602,384.089 166.690,383.784 167.650 M18.096 167.741 C 18.337 167.592,18.408 167.663,18.259 167.904 C 18.114 168.139,18.221 168.423,18.498 168.534 C 18.785 168.650,18.683 168.750,18.257 168.768 C 17.809 168.787,17.596 169.012,17.719 169.333 C 17.832 169.627,17.684 169.867,17.392 169.867 C 17.099 169.867,16.885 169.537,16.915 169.133 C 16.945 168.730,17.106 168.400,17.273 168.400 C 17.439 168.400,17.520 168.175,17.453 167.900 C 17.386 167.625,17.407 167.536,17.500 167.702 C 17.592 167.869,17.861 167.886,18.096 167.741 M16.290 168.800 C 16.257 169.240,16.088 169.600,15.915 169.600 C 15.742 169.600,15.600 169.240,15.600 168.800 C 15.600 168.360,15.769 168.000,15.975 168.000 C 16.181 168.000,16.323 168.360,16.290 168.800 M385.406 171.672 C 385.532 171.798,385.372 172.002,385.050 172.125 C 384.729 172.249,384.374 172.109,384.261 171.814 C 384.063 171.298,384.924 171.191,385.406 171.672 M277.458 178.400 C 277.484 179.060,277.337 179.600,277.130 179.600 C 276.922 179.600,276.883 179.389,277.042 179.132 C 277.236 178.818,277.114 178.747,276.670 178.918 C 275.859 179.229,275.947 178.409,276.800 177.714 C 277.130 177.445,277.402 177.220,277.404 177.213 C 277.407 177.206,277.431 177.740,277.458 178.400 M274.501 179.414 C 274.607 179.971,274.601 180.334,274.487 180.220 C 274.373 180.106,274.050 180.325,273.770 180.706 C 273.352 181.275,273.345 181.129,273.728 179.900 C 274.284 178.119,274.256 178.136,274.501 179.414 M274.491 184.306 C 274.593 184.695,274.537 185.370,274.366 185.806 C 274.130 186.411,274.050 186.243,274.028 185.100 C 273.998 183.493,274.192 183.161,274.491 184.306 M259.358 198.109 C 259.514 197.952,259.524 198.134,259.378 198.512 C 259.233 198.890,258.924 199.200,258.691 199.200 C 258.457 199.200,258.385 199.082,258.530 198.937 C 258.675 198.792,258.570 198.387,258.297 198.037 C 257.868 197.487,257.887 197.468,258.437 197.897 C 258.787 198.170,259.202 198.265,259.358 198.109 M151.219 202.223 C 151.646 202.737,151.637 202.824,151.168 202.723 C 150.855 202.655,150.633 202.788,150.672 203.017 C 150.712 203.246,150.393 203.460,149.964 203.493 C 149.534 203.525,149.287 203.382,149.415 203.176 C 149.543 202.969,149.457 202.800,149.224 202.800 C 148.991 202.800,148.800 202.530,148.800 202.200 C 148.800 201.399,150.549 201.416,151.219 202.223 M248.990 202.416 C 248.848 202.645,248.413 202.731,248.023 202.607 C 247.260 202.365,246.186 203.330,246.554 203.926 C 246.677 204.125,246.558 204.760,246.289 205.338 L 245.800 206.388 198.200 206.494 C 143.894 206.615,147.017 206.678,147.683 205.477 C 147.951 204.995,148.127 204.452,148.075 204.270 C 148.023 204.089,148.173 204.060,148.410 204.206 C 148.708 204.390,148.712 204.624,148.423 204.972 C 148.194 205.248,148.125 205.592,148.270 205.737 C 148.657 206.124,150.400 206.057,150.400 205.655 C 150.400 205.466,150.851 205.397,151.402 205.503 C 152.786 205.767,153.706 204.905,153.505 203.533 C 153.415 202.920,153.535 202.339,153.771 202.241 C 154.754 201.833,249.243 202.007,248.990 202.416 M257.905 202.275 C 257.522 202.375,256.802 202.379,256.305 202.283 C 255.807 202.187,256.120 202.105,257.000 202.101 C 257.880 202.096,258.287 202.175,257.905 202.275 M139.000 205.600 C 138.863 205.821,139.165 206.007,139.676 206.016 C 140.464 206.029,140.405 206.116,139.272 206.608 C 138.505 206.941,138.057 207.368,138.212 207.619 C 138.393 207.912,138.703 207.849,139.171 207.426 C 139.552 207.082,140.029 206.805,140.231 206.812 C 140.434 206.819,140.281 207.010,139.892 207.237 C 139.502 207.464,139.263 207.778,139.360 207.936 C 139.458 208.093,138.731 208.222,137.746 208.222 C 136.309 208.222,136.078 208.132,136.577 207.767 C 137.328 207.218,137.383 206.541,136.700 206.265 C 136.401 206.144,136.482 206.050,136.900 206.032 C 137.285 206.014,137.600 206.195,137.600 206.433 C 137.600 206.672,137.825 206.788,138.100 206.692 C 138.375 206.596,138.547 206.221,138.482 205.859 C 138.418 205.496,138.563 205.200,138.806 205.200 C 139.049 205.200,139.136 205.380,139.000 205.600 M138.188 209.219 C 138.331 208.989,138.842 208.818,139.324 208.840 C 140.189 208.879,140.190 208.883,139.362 209.140 C 138.814 209.310,138.548 209.700,138.593 210.270 C 138.642 210.892,138.450 211.124,137.921 211.084 C 137.514 211.053,137.264 210.809,137.367 210.541 C 137.479 210.251,137.240 210.077,136.777 210.112 C 136.350 210.144,136.000 210.383,136.000 210.642 C 136.000 210.902,135.760 211.207,135.467 211.319 C 135.173 211.432,134.933 211.279,134.933 210.979 C 134.933 210.680,135.063 210.515,135.221 210.613 C 135.380 210.711,135.620 210.388,135.755 209.896 C 135.959 209.148,136.065 209.099,136.394 209.600 C 136.762 210.161,136.984 209.869,136.825 209.032 C 136.786 208.830,137.019 208.884,137.342 209.152 C 137.740 209.482,138.012 209.504,138.188 209.219 M130.112 216.942 C 129.983 217.150,130.210 217.564,130.615 217.861 C 131.358 218.404,131.197 218.494,129.700 218.376 C 129.535 218.363,129.283 218.768,129.140 219.276 C 128.884 220.185,128.879 220.186,128.840 219.324 C 128.818 218.842,128.989 218.331,129.219 218.188 C 129.501 218.014,129.469 217.719,129.119 217.288 C 128.787 216.877,128.770 216.748,129.072 216.930 C 129.332 217.086,129.658 217.030,129.796 216.807 C 129.934 216.583,129.846 216.400,129.600 216.400 C 129.354 216.400,129.276 216.201,129.426 215.957 C 129.619 215.646,129.796 215.671,130.024 216.038 C 130.202 216.326,130.242 216.733,130.112 216.942 M128.222 217.769 C 128.222 218.741,128.093 219.458,127.936 219.360 C 127.778 219.263,127.464 219.502,127.237 219.892 C 127.010 220.281,126.819 220.434,126.812 220.231 C 126.805 220.029,127.082 219.552,127.426 219.171 C 127.849 218.703,127.912 218.393,127.619 218.212 C 127.368 218.057,126.941 218.505,126.608 219.272 C 126.116 220.405,126.029 220.464,126.016 219.676 C 126.007 219.165,125.821 218.863,125.600 219.000 C 125.380 219.136,125.200 219.049,125.200 218.806 C 125.200 218.563,125.496 218.418,125.859 218.482 C 126.221 218.547,126.596 218.375,126.692 218.100 C 126.788 217.825,126.672 217.600,126.433 217.600 C 126.195 217.600,126.014 217.285,126.032 216.900 C 126.050 216.482,126.144 216.401,126.265 216.700 C 126.543 217.390,127.465 217.328,127.745 216.600 C 128.116 215.631,128.222 215.891,128.222 217.769 M124.200 228.306 C 124.420 228.468,124.655 228.855,124.723 229.168 C 124.821 229.623,124.729 229.639,124.258 229.248 C 123.860 228.918,123.588 228.896,123.412 229.181 C 123.269 229.411,123.354 229.600,123.600 229.600 C 123.860 229.600,123.915 229.809,123.730 230.100 C 123.555 230.375,123.409 230.763,123.406 230.962 C 123.396 231.561,122.072 231.564,121.842 230.965 C 121.725 230.660,121.757 230.429,121.914 230.452 C 122.686 230.567,122.852 230.344,122.400 229.800 C 121.542 228.766,123.084 227.486,124.200 228.306 M122.578 228.835 C 122.431 229.074,122.509 229.436,122.752 229.638 C 122.995 229.841,123.106 229.887,123.000 229.740 C 122.894 229.594,123.007 229.232,123.252 228.937 C 123.557 228.570,123.563 228.400,123.273 228.400 C 123.039 228.400,122.726 228.596,122.578 228.835 M124.800 231.171 C 124.800 231.652,123.652 232.800,123.171 232.800 C 122.967 232.800,122.800 232.590,122.800 232.333 C 122.800 232.077,122.918 231.985,123.063 232.130 C 123.425 232.492,124.444 231.595,124.172 231.155 C 124.051 230.960,124.143 230.800,124.376 230.800 C 124.609 230.800,124.800 230.967,124.800 231.171 M17.332 232.110 C 17.170 232.372,17.310 232.443,17.695 232.296 C 18.357 232.042,18.444 232.915,17.814 233.488 C 17.626 233.660,17.601 233.575,17.759 233.300 C 17.918 233.025,17.863 232.800,17.638 232.800 C 17.412 232.800,17.038 232.444,16.805 232.009 C 16.460 231.364,16.494 231.261,16.988 231.451 C 17.322 231.579,17.477 231.876,17.332 232.110 M17.261 236.400 C 17.521 236.400,17.613 236.521,17.465 236.668 C 17.084 237.050,15.200 235.187,15.201 234.430 C 15.202 234.080,15.556 234.379,15.996 235.100 C 16.432 235.815,17.001 236.400,17.261 236.400 M380.508 244.052 C 380.265 244.295,379.921 244.181,379.563 243.740 C 379.253 243.359,379.213 243.174,379.472 243.330 C 379.732 243.486,380.080 243.394,380.246 243.126 C 380.478 242.750,380.585 242.756,380.718 243.155 C 380.813 243.438,380.718 243.842,380.508 244.052 M379.492 245.170 C 379.446 245.781,379.287 245.860,378.717 245.556 C 377.770 245.049,377.802 244.400,378.775 244.400 C 379.294 244.400,379.531 244.655,379.492 245.170 M378.501 246.560 C 378.347 246.809,378.193 246.778,378.093 246.478 C 378.004 246.212,377.797 246.078,377.633 246.180 C 377.468 246.282,377.333 246.120,377.333 245.821 C 377.333 245.400,377.494 245.377,378.041 245.718 C 378.430 245.961,378.637 246.340,378.501 246.560 M46.324 274.903 C 46.417 275.381,46.272 275.526,45.860 275.368 C 44.957 275.021,44.645 273.911,45.497 274.076 C 45.879 274.149,46.251 274.521,46.324 274.903 M51.745 278.200 C 51.424 279.037,52.271 278.954,52.768 278.100 C 53.142 277.458,53.177 277.456,53.188 278.076 C 53.195 278.448,53.378 278.863,53.595 278.997 C 53.822 279.137,53.889 278.977,53.753 278.621 C 53.622 278.279,53.714 278.000,53.957 278.000 C 54.201 278.000,54.371 278.135,54.336 278.300 C 54.170 279.088,54.915 280.061,55.282 279.534 C 55.530 279.176,55.564 279.313,55.383 279.950 C 55.183 280.657,55.243 280.820,55.619 280.588 C 55.954 280.381,56.024 280.438,55.826 280.758 C 55.598 281.126,55.397 281.129,54.964 280.770 C 54.654 280.513,54.400 280.436,54.400 280.600 C 54.400 280.764,54.158 280.697,53.863 280.452 C 53.568 280.207,53.208 280.125,53.063 280.270 C 52.918 280.415,52.800 280.323,52.800 280.067 C 52.800 279.810,53.016 279.600,53.280 279.600 C 53.641 279.600,53.646 279.486,53.301 279.141 C 52.955 278.795,52.595 278.842,51.845 279.334 C 50.831 279.998,50.598 279.297,51.401 277.998 C 51.777 277.391,52.004 277.524,51.745 278.200 M346.177 278.528 C 346.047 278.787,346.224 278.651,346.570 278.224 C 347.105 277.564,347.200 277.546,347.200 278.104 C 347.200 278.465,346.885 278.944,346.500 279.168 C 345.837 279.554,345.837 279.576,346.513 279.588 C 346.905 279.595,347.370 279.211,347.545 278.736 C 347.805 278.034,347.910 277.989,348.106 278.498 C 348.603 279.794,346.990 280.590,345.958 279.558 C 345.374 278.974,345.221 278.593,345.527 278.491 C 345.790 278.403,345.886 278.139,345.741 277.904 C 345.583 277.649,345.666 277.593,345.945 277.766 C 346.202 277.925,346.307 278.268,346.177 278.528 M348.444 280.547 C 348.087 280.977,348.080 281.202,348.415 281.410 C 349.068 281.813,349.877 280.917,349.343 280.383 C 349.054 280.094,348.778 280.144,348.444 280.547 M236.794 314.479 C 236.798 314.089,237.605 313.978,240.023 314.036 C 242.289 314.091,243.121 314.239,242.823 314.537 C 242.590 314.770,242.400 315.464,242.400 316.080 C 242.400 317.168,242.339 317.200,240.243 317.200 C 237.015 317.200,236.711 316.029,239.913 315.928 L 242.200 315.856 240.200 315.716 C 239.100 315.639,237.930 315.462,237.600 315.323 C 237.270 315.183,236.835 315.054,236.633 315.035 C 236.432 315.016,236.193 314.730,236.103 314.400 C 235.957 313.867,235.986 313.867,236.363 314.400 C 236.673 314.837,236.789 314.859,236.794 314.479 M245.200 317.400 C 244.784 317.901,244.840 318.000,245.538 318.000 C 246.118 318.000,246.304 318.185,246.145 318.600 C 246.018 318.930,246.053 319.515,246.223 319.900 C 246.392 320.285,246.546 320.762,246.565 320.960 C 246.612 321.446,247.952 321.938,249.324 321.972 C 249.976 321.988,250.344 321.832,250.200 321.600 C 250.064 321.380,250.163 321.200,250.419 321.200 C 250.700 321.200,250.778 321.479,250.615 321.900 C 249.876 323.810,249.908 329.644,250.660 330.232 C 251.197 330.653,251.235 330.783,250.800 330.706 C 250.328 330.623,250.216 331.004,250.273 332.485 L 250.347 334.369 249.120 334.124 C 248.170 333.934,247.939 334.005,248.096 334.439 C 248.208 334.748,248.465 334.967,248.667 334.928 C 248.869 334.888,249.061 335.218,249.095 335.662 C 249.135 336.201,248.970 336.397,248.598 336.255 C 248.240 336.117,248.117 336.240,248.255 336.598 C 248.397 336.970,248.201 337.135,247.662 337.095 C 247.218 337.061,246.888 336.869,246.928 336.667 C 246.967 336.465,246.748 336.208,246.439 336.096 C 246.010 335.940,245.933 336.166,246.112 337.062 L 246.346 338.230 241.073 338.215 C 238.173 338.207,235.215 338.331,234.500 338.490 C 233.685 338.672,233.200 338.626,233.200 338.366 C 233.200 338.139,233.380 338.064,233.600 338.200 C 233.832 338.344,233.988 337.976,233.972 337.324 C 233.938 335.952,233.446 334.612,232.960 334.565 C 232.762 334.546,232.285 334.392,231.900 334.223 C 231.515 334.053,230.930 334.018,230.600 334.145 C 230.181 334.305,229.993 334.107,229.975 333.487 C 229.951 332.616,229.961 323.480,229.987 322.500 C 229.994 322.225,230.425 322.000,230.945 322.000 C 231.750 322.000,231.859 321.845,231.687 320.941 C 231.534 320.142,231.612 319.960,232.004 320.202 C 232.367 320.427,232.427 320.367,232.202 320.004 C 231.960 319.612,232.142 319.534,232.941 319.687 C 233.845 319.859,234.000 319.750,234.000 318.945 C 234.000 318.319,234.237 317.993,234.700 317.979 C 235.085 317.968,237.409 317.961,239.863 317.965 C 243.298 317.969,244.439 317.835,244.812 317.385 C 245.079 317.063,245.388 316.800,245.498 316.800 C 245.608 316.800,245.474 317.070,245.200 317.400 M231.969 318.100 C 232.404 319.243,231.484 320.399,230.371 320.108 C 229.162 319.792,229.138 319.372,230.330 319.387 C 231.238 319.398,231.398 319.233,231.384 318.300 C 231.365 316.965,231.516 316.913,231.969 318.100 M249.778 318.264 C 250.010 318.004,250.161 317.861,250.114 317.948 C 250.067 318.034,250.210 318.444,250.431 318.858 C 250.653 319.273,250.692 319.588,250.517 319.558 C 249.697 319.421,249.548 319.658,250.051 320.300 C 250.537 320.919,250.527 320.943,249.963 320.503 C 249.613 320.230,249.208 320.125,249.063 320.270 C 248.918 320.415,248.800 320.323,248.800 320.067 C 248.800 319.810,249.016 319.600,249.280 319.600 C 249.641 319.600,249.646 319.486,249.301 319.141 C 248.955 318.795,248.598 318.840,247.858 319.325 C 246.945 319.923,246.885 319.920,247.007 319.285 C 247.080 318.908,247.155 318.420,247.176 318.200 C 247.196 317.980,247.369 318.048,247.561 318.351 C 247.973 319.001,248.915 318.563,248.592 317.872 C 248.470 317.613,248.592 317.701,248.864 318.069 C 249.238 318.577,249.458 318.624,249.778 318.264 M231.086 318.542 C 230.874 319.179,230.133 319.285,230.133 318.678 C 230.133 318.378,230.378 318.133,230.678 318.133 C 230.977 318.133,231.161 318.317,231.086 318.542 M232.444 320.547 C 232.087 320.977,232.080 321.202,232.415 321.410 C 233.068 321.813,233.877 320.917,233.343 320.383 C 233.054 320.094,232.778 320.144,232.444 320.547 M227.000 324.700 C 227.000 324.938,227.135 325.268,227.300 325.433 C 227.465 325.598,227.630 326.738,227.667 327.967 L 227.734 330.200 227.967 327.912 C 228.303 324.606,229.085 325.451,229.266 329.318 L 229.413 332.437 228.207 332.318 C 227.322 332.232,227.016 332.006,227.060 331.473 C 227.096 331.036,226.918 330.823,226.616 330.939 C 226.239 331.083,226.092 330.327,226.035 327.966 C 225.978 325.596,226.089 324.798,226.479 324.794 C 226.859 324.789,226.837 324.673,226.400 324.363 C 225.867 323.986,225.867 323.957,226.400 324.103 C 226.730 324.193,227.000 324.462,227.000 324.700 M227.502 331.133 C 227.374 331.619,227.527 331.869,227.955 331.873 C 228.675 331.880,229.253 331.210,228.950 330.719 C 228.589 330.135,227.696 330.390,227.502 331.133 M246.637 334.740 C 246.178 335.483,247.396 336.528,247.947 335.864 C 248.365 335.360,248.314 335.182,247.650 334.827 C 247.209 334.591,246.753 334.552,246.637 334.740 M231.306 335.887 C 230.835 336.605,230.795 336.955,231.141 337.301 C 231.486 337.646,231.600 337.641,231.600 337.280 C 231.600 337.016,231.810 336.800,232.067 336.800 C 232.323 336.800,232.415 336.918,232.270 337.063 C 232.125 337.208,232.230 337.613,232.503 337.963 C 232.943 338.527,232.919 338.537,232.300 338.051 C 231.658 337.548,231.421 337.697,231.558 338.517 C 231.588 338.692,231.273 338.653,230.858 338.431 C 230.444 338.210,230.034 338.067,229.948 338.114 C 229.861 338.161,230.004 338.010,230.264 337.778 C 230.624 337.458,230.577 337.243,230.069 336.885 C 229.628 336.573,229.587 336.445,229.950 336.506 C 230.253 336.558,230.582 336.375,230.683 336.100 C 230.784 335.825,230.627 335.597,230.333 335.594 C 229.903 335.589,229.900 335.524,230.316 335.261 C 231.445 334.544,231.969 334.875,231.306 335.887 M250.496 336.541 C 250.751 336.383,250.807 336.466,250.634 336.745 C 250.475 337.002,250.222 337.139,250.072 337.049 C 249.731 336.842,248.775 337.842,249.051 338.117 C 249.162 338.229,249.033 338.456,248.765 338.622 C 248.453 338.815,248.379 338.757,248.562 338.462 C 248.719 338.208,248.663 338.000,248.438 338.000 C 248.213 338.000,248.427 337.595,248.914 337.100 C 249.401 336.605,249.860 336.336,249.934 336.502 C 250.008 336.669,250.261 336.686,250.496 336.541 M242.200 339.038 C 240.326 339.339,237.691 339.377,237.862 339.100 C 237.964 338.935,239.162 338.825,240.524 338.854 C 241.886 338.884,242.640 338.967,242.200 339.038 M128.200 343.600 C 128.064 343.820,128.143 344.000,128.376 344.000 C 128.609 344.000,128.800 344.191,128.800 344.424 C 128.800 344.657,128.619 344.735,128.397 344.598 C 128.176 344.461,127.886 344.631,127.754 344.975 C 127.622 345.319,127.359 345.600,127.170 345.600 C 126.788 345.600,127.108 344.480,127.711 343.700 C 128.171 343.105,128.554 343.027,128.200 343.600 M130.377 345.861 C 131.212 346.923,131.234 347.516,130.420 347.012 C 130.182 346.865,130.083 346.590,130.200 346.400 C 130.317 346.210,130.230 345.942,130.007 345.804 C 129.783 345.666,129.600 345.743,129.600 345.976 C 129.600 346.209,129.409 346.400,129.176 346.400 C 128.943 346.400,128.864 346.220,129.000 346.000 C 129.136 345.780,129.070 345.600,128.853 345.600 C 128.636 345.600,128.396 345.915,128.320 346.300 C 128.226 346.775,128.087 346.850,127.887 346.532 C 127.593 346.065,128.552 344.800,129.200 344.800 C 129.388 344.800,129.918 345.277,130.377 345.861 M288.498 348.392 C 288.163 348.928,288.146 349.243,288.443 349.427 C 289.096 349.830,289.739 348.977,289.331 348.249 C 289.022 347.696,288.922 347.713,288.498 348.392 M146.134 366.138 C 146.390 365.992,146.460 366.026,146.288 366.214 C 145.816 366.733,144.836 366.782,144.540 366.303 C 144.384 366.051,144.466 365.993,144.738 366.162 C 144.995 366.320,145.214 366.214,145.232 365.924 C 145.256 365.518,145.309 365.513,145.466 365.902 C 145.577 366.179,145.878 366.285,146.134 366.138 M157.067 375.778 C 157.067 376.096,156.880 376.321,156.652 376.278 C 156.423 376.235,156.228 376.410,156.218 376.667 C 156.208 376.923,156.064 377.269,155.899 377.434 C 155.733 377.600,155.636 377.268,155.684 376.697 C 155.731 376.125,155.912 375.745,156.085 375.852 C 156.258 375.960,156.400 375.857,156.400 375.624 C 156.400 375.391,156.550 375.200,156.733 375.200 C 156.917 375.200,157.067 375.460,157.067 375.778 " stroke="none" fill="#24dc94" fill-rule="evenodd"></path><path id="path1" d="M177.305 14.287 C 177.914 14.379,178.814 14.377,179.305 14.282 C 179.797 14.187,179.300 14.111,178.200 14.114 C 177.100 14.117,176.697 14.195,177.305 14.287 M194.112 14.295 C 195.164 14.377,196.784 14.376,197.712 14.292 C 198.640 14.208,197.780 14.141,195.800 14.142 C 193.820 14.143,193.060 14.212,194.112 14.295 M208.800 14.155 C 208.800 14.489,211.211 14.640,211.691 14.335 C 211.996 14.142,211.520 14.010,210.500 14.006 C 209.565 14.003,208.800 14.070,208.800 14.155 M162.171 16.060 C 162.171 16.687,162.246 16.701,162.817 16.184 C 163.704 15.382,164.222 15.447,163.549 16.277 C 163.242 16.655,163.207 16.829,163.470 16.672 C 163.742 16.508,164.025 16.686,164.144 17.095 C 164.308 17.661,164.335 17.642,164.284 17.000 C 164.249 16.560,164.365 15.968,164.543 15.685 C 164.785 15.298,164.531 15.193,163.518 15.261 C 162.530 15.328,162.171 15.541,162.171 16.060 M236.321 19.081 C 236.711 19.231,236.661 19.427,236.121 19.862 C 235.455 20.400,235.467 20.412,236.278 20.020 C 237.527 19.416,237.686 18.973,236.672 18.924 C 236.193 18.901,236.035 18.971,236.321 19.081 M237.567 20.739 C 237.842 21.252,237.815 21.636,237.481 21.997 C 237.217 22.283,237.193 22.410,237.429 22.279 C 237.664 22.148,238.336 22.289,238.922 22.593 C 240.462 23.392,240.718 22.576,239.369 21.167 C 238.082 19.824,236.931 19.550,237.567 20.739 M242.971 22.800 C 242.971 23.240,243.113 23.600,243.286 23.600 C 243.459 23.600,243.600 23.240,243.600 22.800 C 243.600 22.360,243.459 22.000,243.286 22.000 C 243.113 22.000,242.971 22.360,242.971 22.800 M253.698 30.266 C 253.144 30.489,253.411 31.200,254.047 31.200 C 254.267 31.200,254.345 31.035,254.221 30.834 C 254.097 30.633,254.221 30.377,254.498 30.266 C 254.774 30.154,254.820 30.063,254.600 30.063 C 254.380 30.063,253.974 30.154,253.698 30.266 M113.432 53.478 C 113.009 54.058,112.874 54.401,113.132 54.242 C 113.392 54.081,113.600 54.170,113.600 54.443 C 113.600 55.247,114.021 54.578,114.225 53.449 C 114.460 52.156,114.394 52.159,113.432 53.478 M156.103 58.400 C 156.193 58.730,156.432 59.016,156.633 59.035 C 156.835 59.054,157.270 59.183,157.600 59.323 C 157.930 59.462,159.100 59.639,160.200 59.716 L 162.200 59.856 159.913 59.928 C 156.711 60.029,157.015 61.200,160.243 61.200 C 162.339 61.200,162.400 61.168,162.400 60.080 C 162.400 59.464,162.590 58.770,162.823 58.537 C 163.121 58.239,162.289 58.091,160.023 58.036 C 157.605 57.978,156.798 58.089,156.794 58.479 C 156.789 58.859,156.673 58.837,156.363 58.400 C 155.986 57.867,155.957 57.867,156.103 58.400 M151.384 62.300 C 151.398 63.233,151.238 63.398,150.330 63.387 C 149.138 63.372,149.162 63.792,150.371 64.108 C 151.484 64.399,152.404 63.243,151.969 62.100 C 151.516 60.913,151.365 60.965,151.384 62.300 M168.592 61.872 C 168.915 62.563,167.973 63.001,167.561 62.351 C 167.369 62.048,167.196 61.980,167.176 62.200 C 167.155 62.420,167.080 62.908,167.007 63.285 C 166.885 63.920,166.945 63.923,167.858 63.325 C 168.598 62.840,168.955 62.795,169.301 63.141 C 169.646 63.486,169.641 63.600,169.280 63.600 C 169.016 63.600,168.800 63.810,168.800 64.067 C 168.800 64.323,168.918 64.415,169.063 64.270 C 169.208 64.125,169.613 64.230,169.963 64.503 C 170.527 64.943,170.537 64.919,170.051 64.300 C 169.548 63.658,169.697 63.421,170.517 63.558 C 170.692 63.588,170.653 63.273,170.431 62.858 C 170.210 62.444,170.067 62.034,170.114 61.948 C 170.161 61.861,170.010 62.004,169.778 62.264 C 169.458 62.624,169.238 62.577,168.864 62.069 C 168.592 61.701,168.470 61.613,168.592 61.872 M150.133 62.678 C 150.133 62.977,150.317 63.161,150.542 63.086 C 151.179 62.874,151.285 62.133,150.678 62.133 C 150.378 62.133,150.133 62.378,150.133 62.678 M151.867 63.867 C 151.440 64.293,151.559 65.600,152.024 65.600 C 152.257 65.600,152.349 65.440,152.228 65.245 C 151.956 64.805,152.975 63.908,153.337 64.270 C 153.482 64.415,153.600 64.323,153.600 64.067 C 153.600 63.569,152.313 63.421,151.867 63.867 M146.400 68.363 C 146.837 68.673,146.859 68.789,146.479 68.794 C 146.089 68.798,145.978 69.596,146.035 71.966 C 146.092 74.327,146.239 75.083,146.616 74.939 C 146.916 74.824,147.096 75.033,147.060 75.456 C 147.016 75.982,147.389 76.233,148.496 76.420 C 149.549 76.598,149.891 76.543,149.650 76.236 C 149.462 75.996,149.273 74.544,149.230 73.009 C 149.129 69.391,148.297 68.669,147.967 71.912 L 147.734 74.200 147.667 71.967 C 147.630 70.738,147.465 69.598,147.300 69.433 C 147.135 69.268,147.000 68.938,147.000 68.700 C 147.000 68.462,146.730 68.193,146.400 68.103 C 145.867 67.957,145.867 67.986,146.400 68.363 M110.185 91.200 C 110.185 101.650,110.236 105.925,110.300 100.700 C 110.363 95.475,110.363 86.925,110.300 81.700 C 110.236 76.475,110.185 80.750,110.185 91.200 M148.950 74.719 C 149.253 75.210,148.675 75.880,147.955 75.873 C 147.527 75.869,147.374 75.619,147.502 75.133 C 147.696 74.390,148.589 74.135,148.950 74.719 M167.722 78.844 C 168.314 79.189,168.354 79.373,167.943 79.868 C 167.500 80.402,167.382 80.390,166.921 79.760 C 166.634 79.368,166.400 79.251,166.400 79.500 C 166.400 79.749,166.583 80.066,166.807 80.204 C 167.030 80.342,167.133 80.585,167.034 80.745 C 166.936 80.904,167.218 81.061,167.662 81.095 C 168.201 81.135,168.397 80.970,168.255 80.598 C 168.117 80.240,168.240 80.117,168.598 80.255 C 168.970 80.397,169.135 80.201,169.095 79.662 C 169.061 79.218,168.904 78.936,168.745 79.034 C 168.585 79.133,168.342 79.030,168.204 78.807 C 168.066 78.583,167.738 78.405,167.476 78.412 C 167.214 78.419,167.325 78.613,167.722 78.844 M150.316 79.261 C 149.900 79.524,149.903 79.589,150.333 79.594 C 150.627 79.597,150.784 79.825,150.683 80.100 C 150.583 80.375,150.253 80.558,149.950 80.506 C 149.587 80.445,149.628 80.573,150.069 80.885 C 150.577 81.243,150.624 81.458,150.264 81.778 C 150.004 82.010,149.861 82.161,149.948 82.114 C 150.034 82.067,150.444 82.210,150.858 82.431 C 151.273 82.653,151.588 82.692,151.558 82.517 C 151.421 81.697,151.658 81.548,152.300 82.051 C 152.919 82.537,152.943 82.527,152.503 81.963 C 152.230 81.613,152.125 81.208,152.270 81.063 C 152.415 80.918,152.323 80.800,152.067 80.800 C 151.810 80.800,151.600 81.016,151.600 81.280 C 151.600 81.641,151.486 81.646,151.141 81.301 C 150.795 80.955,150.835 80.605,151.306 79.887 C 151.969 78.875,151.445 78.544,150.316 79.261 M168.914 81.100 C 168.427 81.595,168.213 82.000,168.438 82.000 C 168.663 82.000,168.719 82.208,168.562 82.462 C 168.379 82.757,168.453 82.815,168.765 82.622 C 169.033 82.456,169.162 82.229,169.051 82.117 C 168.775 81.842,169.731 80.842,170.072 81.049 C 170.222 81.139,170.475 81.002,170.634 80.745 C 170.807 80.466,170.751 80.383,170.496 80.541 C 170.261 80.686,170.008 80.669,169.934 80.502 C 169.860 80.336,169.401 80.605,168.914 81.100 M157.862 83.100 C 157.760 83.265,158.514 83.347,159.538 83.283 C 162.712 83.084,163.109 82.911,160.524 82.854 C 159.162 82.825,157.964 82.935,157.862 83.100 M190.000 115.799 L 190.000 117.997 131.300 118.100 L 72.600 118.203 131.500 118.301 L 190.400 118.400 190.400 116.000 C 190.400 114.680,190.310 113.600,190.200 113.600 C 190.090 113.600,190.000 114.589,190.000 115.799 M62.925 118.258 C 63.309 118.642,65.990 118.708,65.755 118.327 C 65.644 118.147,64.903 118.000,64.110 118.000 C 63.316 118.000,62.783 118.116,62.925 118.258 M293.072 118.300 C 299.271 118.362,309.531 118.362,315.872 118.300 C 322.212 118.238,317.140 118.187,304.600 118.187 C 292.060 118.187,286.872 118.238,293.072 118.300 M334.252 118.316 C 334.144 118.490,334.673 118.561,335.428 118.473 C 336.183 118.385,336.800 118.242,336.800 118.156 C 336.800 117.855,334.445 118.003,334.252 118.316 M346.085 119.468 C 345.441 119.970,345.442 119.987,346.100 119.758 C 346.936 119.467,347.063 120.324,346.231 120.643 C 345.918 120.764,345.560 121.127,345.436 121.452 C 345.307 121.786,345.382 121.935,345.607 121.795 C 345.826 121.660,346.117 121.838,346.252 122.192 C 346.475 122.772,346.565 122.775,347.182 122.216 C 347.558 121.876,347.955 121.689,348.066 121.799 C 348.176 121.910,348.267 121.730,348.267 121.400 C 348.267 121.070,348.117 120.800,347.933 120.800 C 347.750 120.800,347.600 121.016,347.600 121.280 C 347.600 121.641,347.486 121.646,347.141 121.301 C 346.795 120.955,346.835 120.605,347.306 119.887 C 348.038 118.770,347.304 118.518,346.085 119.468 M278.000 121.000 C 278.000 121.330,278.292 121.600,278.649 121.600 C 279.180 121.600,279.208 121.491,278.800 121.000 C 278.526 120.670,278.234 120.400,278.151 120.400 C 278.068 120.400,278.000 120.670,278.000 121.000 M278.189 148.000 C 278.189 162.410,278.239 168.305,278.300 161.100 C 278.361 153.895,278.361 142.105,278.300 134.900 C 278.239 127.695,278.189 133.590,278.189 148.000 M42.054 125.300 C 42.010 126.203,42.162 126.392,42.900 126.354 C 43.538 126.321,43.603 126.255,43.125 126.129 C 42.753 126.031,42.373 125.557,42.279 125.075 C 42.139 124.355,42.099 124.394,42.054 125.300 M44.975 125.700 L 43.800 127.000 45.198 125.800 C 45.967 125.140,46.672 124.555,46.765 124.500 C 46.857 124.445,46.757 124.400,46.542 124.400 C 46.326 124.400,45.621 124.985,44.975 125.700 M34.184 130.427 C 34.039 130.661,34.016 130.949,34.133 131.067 C 34.420 131.353,35.200 130.848,35.200 130.376 C 35.200 129.865,34.509 129.899,34.184 130.427 M364.142 130.472 C 364.507 130.676,364.983 130.734,365.199 130.601 C 365.430 130.458,365.487 130.654,365.337 131.079 C 365.137 131.644,365.191 131.699,365.586 131.335 C 366.295 130.680,365.807 130.100,364.546 130.100 C 363.679 130.100,363.603 130.170,364.142 130.472 M370.102 139.274 C 370.134 140.085,370.292 140.667,370.452 140.568 C 370.613 140.468,370.860 140.573,371.000 140.800 C 371.140 141.027,371.423 141.109,371.628 140.983 C 371.832 140.856,372.000 141.033,372.000 141.376 C 372.000 142.106,372.627 142.204,373.038 141.538 C 373.215 141.252,373.148 141.185,372.862 141.362 C 372.449 141.617,372.220 141.139,372.353 140.300 C 372.395 140.029,371.461 139.832,370.700 139.953 C 370.237 140.026,370.344 139.420,370.900 138.821 C 371.221 138.475,371.234 138.376,370.934 138.544 C 370.678 138.687,370.373 138.579,370.256 138.302 C 370.139 138.026,370.069 138.463,370.102 139.274 M20.305 151.229 C 19.923 151.452,19.418 152.032,19.183 152.517 C 18.785 153.340,18.796 153.350,19.346 152.668 C 19.670 152.265,20.265 151.686,20.668 151.380 C 21.522 150.733,21.309 150.644,20.305 151.229 M18.000 162.776 C 18.000 163.009,17.761 163.200,17.470 163.200 C 16.843 163.200,15.200 164.859,15.200 165.492 C 15.200 165.735,14.975 166.024,14.700 166.135 C 14.380 166.264,14.364 166.348,14.654 166.368 C 14.904 166.386,15.408 165.941,15.776 165.381 C 16.143 164.820,16.989 164.030,17.655 163.625 C 18.375 163.187,18.691 162.780,18.433 162.621 C 18.195 162.473,18.000 162.543,18.000 162.776 M381.803 163.595 C 381.664 163.820,381.819 163.891,382.161 163.759 C 382.510 163.626,383.194 163.958,383.782 164.546 C 384.342 165.106,384.800 165.423,384.800 165.252 C 384.800 164.195,382.290 162.808,381.803 163.595 M382.422 165.765 C 382.868 166.355,382.886 166.569,382.500 166.698 C 382.225 166.791,382.000 167.070,382.000 167.319 C 382.000 167.568,382.309 167.463,382.686 167.086 C 383.333 166.438,383.329 166.361,382.608 165.700 C 381.873 165.027,381.866 165.030,382.422 165.765 M383.400 167.331 C 382.926 167.924,382.600 169.133,383.030 168.703 C 383.193 168.540,383.538 168.583,383.797 168.797 C 384.120 169.065,384.267 169.007,384.267 168.611 C 384.267 168.294,384.097 168.140,383.890 168.268 C 383.671 168.403,383.627 168.145,383.784 167.650 C 384.089 166.690,383.983 166.602,383.400 167.331 M17.453 167.900 C 17.520 168.175,17.439 168.400,17.273 168.400 C 17.106 168.400,16.945 168.730,16.915 169.133 C 16.885 169.537,17.099 169.867,17.392 169.867 C 17.684 169.867,17.832 169.627,17.719 169.333 C 17.596 169.012,17.809 168.787,18.257 168.768 C 18.683 168.750,18.785 168.650,18.498 168.534 C 18.221 168.423,18.114 168.139,18.259 167.904 C 18.408 167.663,18.337 167.592,18.096 167.741 C 17.861 167.886,17.592 167.869,17.500 167.702 C 17.407 167.536,17.386 167.625,17.453 167.900 M15.600 168.800 C 15.600 169.240,15.742 169.600,15.915 169.600 C 16.088 169.600,16.257 169.240,16.290 168.800 C 16.323 168.360,16.181 168.000,15.975 168.000 C 15.769 168.000,15.600 168.360,15.600 168.800 M14.032 170.349 C 14.006 171.110,14.109 171.207,14.549 170.842 C 14.851 170.591,15.436 170.493,15.849 170.623 C 16.546 170.843,16.549 170.828,15.897 170.409 C 15.510 170.160,15.030 170.058,14.831 170.181 C 14.632 170.304,14.377 170.179,14.266 169.902 C 14.154 169.626,14.049 169.827,14.032 170.349 M384.261 171.814 C 384.374 172.109,384.729 172.249,385.050 172.125 C 385.699 171.876,385.479 171.488,384.616 171.361 C 384.295 171.314,384.143 171.508,384.261 171.814 M276.800 177.714 C 275.947 178.409,275.859 179.229,276.670 178.918 C 277.114 178.747,277.236 178.818,277.042 179.132 C 276.883 179.389,276.922 179.600,277.130 179.600 C 277.337 179.600,277.484 179.060,277.458 178.400 C 277.431 177.740,277.407 177.206,277.404 177.213 C 277.402 177.220,277.130 177.445,276.800 177.714 M273.728 179.900 C 273.345 181.129,273.352 181.275,273.770 180.706 C 274.050 180.325,274.373 180.106,274.487 180.220 C 274.601 180.334,274.607 179.971,274.501 179.414 C 274.256 178.136,274.284 178.119,273.728 179.900 M14.000 183.400 C 14.000 184.463,14.082 185.252,14.182 185.152 C 14.495 184.839,14.576 182.043,14.281 181.747 C 14.126 181.593,14.000 182.337,14.000 183.400 M14.140 200.000 C 14.140 201.870,14.209 202.635,14.293 201.700 C 14.377 200.765,14.377 199.235,14.293 198.300 C 14.209 197.365,14.140 198.130,14.140 200.000 M258.297 198.037 C 258.570 198.387,258.675 198.792,258.530 198.937 C 258.385 199.082,258.457 199.200,258.691 199.200 C 258.924 199.200,259.233 198.890,259.378 198.512 C 259.524 198.134,259.514 197.952,259.358 198.109 C 259.202 198.265,258.787 198.170,258.437 197.897 C 257.887 197.468,257.868 197.487,258.297 198.037 M148.800 202.200 C 148.800 202.530,148.991 202.800,149.224 202.800 C 149.457 202.800,149.543 202.969,149.415 203.176 C 149.287 203.382,149.534 203.525,149.964 203.493 C 150.393 203.460,150.712 203.246,150.672 203.017 C 150.633 202.788,150.855 202.655,151.168 202.723 C 151.637 202.824,151.646 202.737,151.219 202.223 C 150.549 201.416,148.800 201.399,148.800 202.200 M148.075 204.270 C 148.127 204.452,147.945 205.005,147.671 205.500 C 147.244 206.271,147.266 206.400,147.829 206.400 C 148.222 206.400,148.401 206.179,148.274 205.849 C 148.158 205.546,148.244 205.116,148.466 204.894 C 148.738 204.622,148.724 204.400,148.425 204.215 C 148.180 204.064,148.023 204.089,148.075 204.270 M138.482 205.859 C 138.547 206.221,138.375 206.596,138.100 206.692 C 137.825 206.788,137.600 206.672,137.600 206.433 C 137.600 206.195,137.285 206.014,136.900 206.032 C 136.482 206.050,136.401 206.144,136.700 206.265 C 137.383 206.541,137.328 207.218,136.577 207.767 C 136.078 208.132,136.309 208.222,137.746 208.222 C 138.731 208.222,139.458 208.093,139.360 207.936 C 139.263 207.778,139.502 207.464,139.892 207.237 C 140.281 207.010,140.434 206.819,140.231 206.812 C 140.029 206.805,139.552 207.082,139.171 207.426 C 138.703 207.849,138.393 207.912,138.212 207.619 C 138.057 207.368,138.505 206.941,139.272 206.608 C 140.405 206.116,140.464 206.029,139.676 206.016 C 139.165 206.007,138.863 205.821,139.000 205.600 C 139.136 205.380,139.049 205.200,138.806 205.200 C 138.563 205.200,138.418 205.496,138.482 205.859 M175.269 206.300 C 188.177 206.358,209.417 206.358,222.469 206.300 C 235.521 206.241,224.960 206.194,199.000 206.194 C 173.040 206.193,162.361 206.241,175.269 206.300 M136.825 209.032 C 136.984 209.869,136.762 210.161,136.394 209.600 C 136.065 209.099,135.959 209.148,135.755 209.896 C 135.620 210.388,135.380 210.711,135.221 210.613 C 135.063 210.515,134.933 210.680,134.933 210.979 C 134.933 211.279,135.173 211.432,135.467 211.319 C 135.760 211.207,136.000 210.902,136.000 210.642 C 136.000 210.383,136.350 210.144,136.777 210.112 C 137.240 210.077,137.479 210.251,137.367 210.541 C 137.264 210.809,137.514 211.053,137.921 211.084 C 138.450 211.124,138.642 210.892,138.593 210.270 C 138.548 209.700,138.814 209.310,139.362 209.140 C 140.190 208.883,140.189 208.879,139.324 208.840 C 138.842 208.818,138.331 208.989,138.188 209.219 C 138.012 209.504,137.740 209.482,137.342 209.152 C 137.019 208.884,136.786 208.830,136.825 209.032 M14.053 216.600 C 14.034 217.947,14.141 218.401,14.380 217.992 C 14.578 217.655,14.591 216.764,14.409 215.992 C 14.094 214.651,14.081 214.673,14.053 216.600 M129.426 215.957 C 129.276 216.201,129.354 216.400,129.600 216.400 C 129.846 216.400,129.934 216.583,129.796 216.807 C 129.658 217.030,129.332 217.086,129.072 216.930 C 128.770 216.748,128.787 216.877,129.119 217.288 C 129.469 217.719,129.501 218.014,129.219 218.188 C 128.989 218.331,128.818 218.842,128.840 219.324 C 128.879 220.186,128.884 220.185,129.140 219.276 C 129.283 218.768,129.535 218.363,129.700 218.376 C 131.197 218.494,131.358 218.404,130.615 217.861 C 130.210 217.564,129.983 217.150,130.112 216.942 C 130.242 216.733,130.202 216.326,130.024 216.038 C 129.796 215.671,129.619 215.646,129.426 215.957 M127.745 216.600 C 127.465 217.328,126.543 217.390,126.265 216.700 C 126.144 216.401,126.050 216.482,126.032 216.900 C 126.014 217.285,126.195 217.600,126.433 217.600 C 126.672 217.600,126.788 217.825,126.692 218.100 C 126.596 218.375,126.221 218.547,125.859 218.482 C 125.496 218.418,125.200 218.563,125.200 218.806 C 125.200 219.049,125.380 219.136,125.600 219.000 C 125.821 218.863,126.007 219.165,126.016 219.676 C 126.029 220.464,126.116 220.405,126.608 219.272 C 126.941 218.505,127.368 218.057,127.619 218.212 C 127.912 218.393,127.849 218.703,127.426 219.171 C 127.082 219.552,126.805 220.029,126.812 220.231 C 126.819 220.434,127.010 220.281,127.237 219.892 C 127.464 219.502,127.778 219.263,127.936 219.360 C 128.093 219.458,128.222 218.741,128.222 217.769 C 128.222 215.891,128.116 215.631,127.745 216.600 M14.000 220.976 C 14.000 221.513,14.147 222.044,14.328 222.155 C 14.508 222.267,14.577 221.827,14.482 221.179 C 14.272 219.749,14.000 219.635,14.000 220.976 M125.657 227.563 C 125.255 227.813,125.236 227.975,125.584 228.190 C 126.133 228.529,126.545 228.229,126.342 227.638 C 126.258 227.396,125.976 227.365,125.657 227.563 M122.400 228.600 C 122.003 229.079,122.003 229.321,122.400 229.800 C 122.852 230.344,122.686 230.567,121.914 230.452 C 121.757 230.429,121.725 230.660,121.842 230.965 C 122.072 231.564,123.396 231.561,123.406 230.962 C 123.409 230.763,123.555 230.375,123.730 230.100 C 123.915 229.809,123.860 229.600,123.600 229.600 C 123.354 229.600,123.269 229.411,123.412 229.181 C 123.588 228.896,123.860 228.918,124.258 229.248 C 124.729 229.639,124.821 229.623,124.723 229.168 C 124.461 227.957,123.191 227.647,122.400 228.600 M123.252 228.937 C 123.007 229.232,122.894 229.594,123.000 229.740 C 123.106 229.887,122.995 229.841,122.752 229.638 C 122.261 229.229,122.609 228.400,123.273 228.400 C 123.563 228.400,123.557 228.570,123.252 228.937 M14.046 229.500 C 14.010 230.211,14.215 230.400,15.024 230.400 C 15.587 230.400,15.941 230.228,15.811 230.017 C 15.681 229.807,15.326 229.730,15.022 229.847 C 14.704 229.969,14.390 229.749,14.281 229.329 C 14.130 228.744,14.084 228.778,14.046 229.500 M124.172 231.155 C 124.444 231.595,123.425 232.492,123.063 232.130 C 122.918 231.985,122.800 232.077,122.800 232.333 C 122.800 232.988,123.429 232.914,124.171 232.171 C 124.895 231.448,124.992 230.800,124.376 230.800 C 124.143 230.800,124.051 230.960,124.172 231.155 M16.805 232.009 C 17.038 232.444,17.412 232.800,17.638 232.800 C 17.863 232.800,17.918 233.025,17.759 233.300 C 17.601 233.575,17.626 233.660,17.814 233.488 C 18.444 232.915,18.357 232.042,17.695 232.296 C 17.310 232.443,17.170 232.372,17.332 232.110 C 17.477 231.876,17.322 231.579,16.988 231.451 C 16.494 231.261,16.460 231.364,16.805 232.009 M385.017 231.972 C 384.744 232.414,385.375 232.892,385.744 232.522 C 386.125 232.142,386.054 231.600,385.624 231.600 C 385.417 231.600,385.144 231.768,385.017 231.972 M126.194 280.000 C 126.194 306.510,126.241 317.355,126.300 304.100 C 126.358 290.845,126.358 269.155,126.300 255.900 C 126.241 242.645,126.194 253.490,126.194 280.000 M15.201 234.430 C 15.200 235.187,17.084 237.050,17.465 236.668 C 17.613 236.521,17.521 236.400,17.261 236.400 C 17.001 236.400,16.432 235.815,15.996 235.100 C 15.556 234.379,15.202 234.080,15.201 234.430 M19.764 242.341 C 19.927 242.605,19.763 242.916,19.385 243.061 C 19.005 243.207,18.567 243.077,18.366 242.758 C 18.083 242.311,18.011 242.340,18.006 242.900 C 18.002 243.373,18.310 243.600,18.957 243.600 C 19.987 243.600,20.651 242.602,19.921 242.151 C 19.651 241.984,19.589 242.059,19.764 242.341 M380.246 243.126 C 380.080 243.394,379.732 243.486,379.472 243.330 C 379.213 243.174,379.253 243.359,379.563 243.740 C 380.172 244.491,381.020 244.061,380.718 243.155 C 380.585 242.756,380.478 242.750,380.246 243.126 M378.000 244.786 C 378.000 245.615,379.431 245.983,379.492 245.170 C 379.531 244.655,379.294 244.400,378.775 244.400 C 378.349 244.400,378.000 244.574,378.000 244.786 M377.333 245.821 C 377.333 246.120,377.468 246.282,377.633 246.180 C 377.797 246.078,378.004 246.212,378.093 246.478 C 378.193 246.778,378.347 246.809,378.501 246.560 C 378.637 246.340,378.430 245.961,378.041 245.718 C 377.494 245.377,377.333 245.400,377.333 245.821 M26.006 257.700 C 26.003 258.085,26.191 258.400,26.424 258.400 C 26.657 258.400,26.720 258.625,26.565 258.900 C 26.339 259.300,26.390 259.300,26.821 258.900 C 27.420 258.344,28.026 258.237,27.953 258.700 C 27.832 259.461,28.029 260.395,28.300 260.353 C 29.046 260.235,29.629 260.429,29.441 260.733 C 29.328 260.917,29.480 261.067,29.779 261.067 C 30.079 261.067,30.232 260.827,30.119 260.533 C 30.007 260.240,29.653 260.000,29.334 260.000 C 29.014 260.000,28.856 259.832,28.983 259.628 C 29.109 259.423,29.027 259.140,28.800 259.000 C 28.573 258.860,28.467 258.615,28.565 258.457 C 28.662 258.299,28.270 258.131,27.694 258.083 C 27.117 258.035,26.502 257.772,26.329 257.498 C 26.104 257.144,26.010 257.203,26.006 257.700 M34.129 268.569 C 34.175 269.211,34.434 269.811,34.706 269.902 C 35.342 270.114,35.312 269.650,34.609 268.400 L 34.047 267.400 34.129 268.569 M360.860 273.042 C 360.562 273.378,360.399 273.732,360.495 273.829 C 360.592 273.926,360.998 273.644,361.398 273.202 C 361.797 272.761,361.961 272.407,361.762 272.415 C 361.563 272.424,361.157 272.705,360.860 273.042 M45.032 274.540 C 45.379 275.443,46.489 275.755,46.324 274.903 C 46.251 274.521,45.879 274.149,45.497 274.076 C 45.019 273.983,44.874 274.128,45.032 274.540 M51.401 277.998 C 50.598 279.297,50.831 279.998,51.845 279.334 C 52.595 278.842,52.955 278.795,53.301 279.141 C 53.646 279.486,53.641 279.600,53.280 279.600 C 53.016 279.600,52.800 279.810,52.800 280.067 C 52.800 280.323,52.918 280.415,53.063 280.270 C 53.208 280.125,53.568 280.207,53.863 280.452 C 54.158 280.697,54.400 280.764,54.400 280.600 C 54.400 280.436,54.654 280.513,54.964 280.770 C 55.397 281.129,55.598 281.126,55.826 280.758 C 56.024 280.438,55.954 280.381,55.619 280.588 C 55.243 280.820,55.183 280.657,55.383 279.950 C 55.564 279.313,55.530 279.176,55.282 279.534 C 54.915 280.061,54.170 279.088,54.336 278.300 C 54.371 278.135,54.201 278.000,53.957 278.000 C 53.714 278.000,53.622 278.279,53.753 278.621 C 53.889 278.977,53.822 279.137,53.595 278.997 C 53.378 278.863,53.195 278.448,53.188 278.076 C 53.177 277.456,53.142 277.458,52.768 278.100 C 52.271 278.954,51.424 279.037,51.745 278.200 C 52.004 277.524,51.777 277.391,51.401 277.998 M345.741 277.904 C 345.886 278.139,345.790 278.403,345.527 278.491 C 345.221 278.593,345.374 278.974,345.958 279.558 C 346.990 280.590,348.603 279.794,348.106 278.498 C 347.910 277.989,347.805 278.034,347.545 278.736 C 347.370 279.211,346.905 279.595,346.513 279.588 C 345.837 279.576,345.837 279.554,346.500 279.168 C 346.885 278.944,347.200 278.465,347.200 278.104 C 347.200 277.546,347.105 277.564,346.570 278.224 C 346.224 278.651,346.047 278.787,346.177 278.528 C 346.307 278.268,346.202 277.925,345.945 277.766 C 345.666 277.593,345.583 277.649,345.741 277.904 M347.867 279.867 C 347.440 280.293,347.559 281.600,348.024 281.600 C 348.257 281.600,348.349 281.440,348.228 281.245 C 347.956 280.805,348.975 279.908,349.337 280.270 C 349.482 280.415,349.600 280.323,349.600 280.067 C 349.600 279.569,348.313 279.421,347.867 279.867 M228.470 286.300 C 238.958 286.359,256.238 286.359,266.870 286.300 C 277.501 286.241,268.920 286.192,247.800 286.192 C 226.680 286.192,217.981 286.241,228.470 286.300 M236.103 314.400 C 236.193 314.730,236.432 315.016,236.633 315.035 C 236.835 315.054,237.270 315.183,237.600 315.323 C 237.930 315.462,239.100 315.639,240.200 315.716 L 242.200 315.856 239.913 315.928 C 236.711 316.029,237.015 317.200,240.243 317.200 C 242.339 317.200,242.400 317.168,242.400 316.080 C 242.400 315.464,242.590 314.770,242.823 314.537 C 243.121 314.239,242.289 314.091,240.023 314.036 C 237.605 313.978,236.798 314.089,236.794 314.479 C 236.789 314.859,236.673 314.837,236.363 314.400 C 235.986 313.867,235.957 313.867,236.103 314.400 M231.384 318.300 C 231.398 319.233,231.238 319.398,230.330 319.387 C 229.138 319.372,229.162 319.792,230.371 320.108 C 231.484 320.399,232.404 319.243,231.969 318.100 C 231.516 316.913,231.365 316.965,231.384 318.300 M248.592 317.872 C 248.915 318.563,247.973 319.001,247.561 318.351 C 247.369 318.048,247.196 317.980,247.176 318.200 C 247.155 318.420,247.080 318.908,247.007 319.285 C 246.885 319.920,246.945 319.923,247.858 319.325 C 248.598 318.840,248.955 318.795,249.301 319.141 C 249.646 319.486,249.641 319.600,249.280 319.600 C 249.016 319.600,248.800 319.810,248.800 320.067 C 248.800 320.323,248.918 320.415,249.063 320.270 C 249.208 320.125,249.613 320.230,249.963 320.503 C 250.527 320.943,250.537 320.919,250.051 320.300 C 249.548 319.658,249.697 319.421,250.517 319.558 C 250.692 319.588,250.653 319.273,250.431 318.858 C 250.210 318.444,250.067 318.034,250.114 317.948 C 250.161 317.861,250.010 318.004,249.778 318.264 C 249.458 318.624,249.238 318.577,248.864 318.069 C 248.592 317.701,248.470 317.613,248.592 317.872 M230.133 318.678 C 230.133 318.977,230.317 319.161,230.542 319.086 C 231.179 318.874,231.285 318.133,230.678 318.133 C 230.378 318.133,230.133 318.378,230.133 318.678 M231.867 319.867 C 231.440 320.293,231.559 321.600,232.024 321.600 C 232.257 321.600,232.349 321.440,232.228 321.245 C 231.956 320.805,232.975 319.908,233.337 320.270 C 233.482 320.415,233.600 320.323,233.600 320.067 C 233.600 319.569,232.313 319.421,231.867 319.867 M226.400 324.363 C 226.837 324.673,226.859 324.789,226.479 324.794 C 226.089 324.798,225.978 325.596,226.035 327.966 C 226.092 330.327,226.239 331.083,226.616 330.939 C 226.916 330.824,227.096 331.033,227.060 331.456 C 227.016 331.982,227.389 332.233,228.496 332.420 C 229.549 332.598,229.891 332.543,229.650 332.236 C 229.462 331.996,229.273 330.544,229.230 329.009 C 229.129 325.391,228.297 324.669,227.967 327.912 L 227.734 330.200 227.667 327.967 C 227.630 326.738,227.465 325.598,227.300 325.433 C 227.135 325.268,227.000 324.938,227.000 324.700 C 227.000 324.462,226.730 324.193,226.400 324.103 C 225.867 323.957,225.867 323.986,226.400 324.363 M228.950 330.719 C 229.253 331.210,228.675 331.880,227.955 331.873 C 227.527 331.869,227.374 331.619,227.502 331.133 C 227.696 330.390,228.589 330.135,228.950 330.719 M126.061 334.816 C 126.052 335.956,126.136 336.797,126.247 336.686 C 126.517 336.416,126.551 333.217,126.286 332.953 C 126.171 332.838,126.070 333.676,126.061 334.816 M247.722 334.844 C 248.314 335.189,248.354 335.373,247.943 335.868 C 247.500 336.402,247.382 336.390,246.921 335.760 C 246.634 335.368,246.400 335.251,246.400 335.500 C 246.400 335.749,246.583 336.066,246.807 336.204 C 247.030 336.342,247.133 336.585,247.034 336.745 C 246.936 336.904,247.218 337.061,247.662 337.095 C 248.201 337.135,248.397 336.970,248.255 336.598 C 248.117 336.240,248.240 336.117,248.598 336.255 C 248.970 336.397,249.135 336.201,249.095 335.662 C 249.061 335.218,248.904 334.936,248.745 335.034 C 248.585 335.133,248.342 335.030,248.204 334.807 C 248.066 334.583,247.738 334.405,247.476 334.412 C 247.214 334.419,247.325 334.613,247.722 334.844 M230.316 335.261 C 229.900 335.524,229.903 335.589,230.333 335.594 C 230.627 335.597,230.784 335.825,230.683 336.100 C 230.582 336.375,230.253 336.558,229.950 336.506 C 229.587 336.445,229.628 336.573,230.069 336.885 C 230.577 337.243,230.624 337.458,230.264 337.778 C 230.004 338.010,229.861 338.161,229.948 338.114 C 230.034 338.067,230.444 338.210,230.858 338.431 C 231.273 338.653,231.588 338.692,231.558 338.517 C 231.421 337.697,231.658 337.548,232.300 338.051 C 232.919 338.537,232.943 338.527,232.503 337.963 C 232.230 337.613,232.125 337.208,232.270 337.063 C 232.415 336.918,232.323 336.800,232.067 336.800 C 231.810 336.800,231.600 337.016,231.600 337.280 C 231.600 337.641,231.486 337.646,231.141 337.301 C 230.795 336.955,230.835 336.605,231.306 335.887 C 231.969 334.875,231.445 334.544,230.316 335.261 M248.914 337.100 C 248.427 337.595,248.213 338.000,248.438 338.000 C 248.663 338.000,248.719 338.208,248.562 338.462 C 248.379 338.757,248.453 338.815,248.765 338.622 C 249.033 338.456,249.162 338.229,249.051 338.117 C 248.775 337.842,249.731 336.842,250.072 337.049 C 250.222 337.139,250.475 337.002,250.634 336.745 C 250.807 336.466,250.751 336.383,250.496 336.541 C 250.261 336.686,250.008 336.669,249.934 336.502 C 249.860 336.336,249.401 336.605,248.914 337.100 M237.862 339.100 C 237.760 339.265,238.514 339.347,239.538 339.283 C 242.712 339.084,243.109 338.911,240.524 338.854 C 239.162 338.825,237.964 338.935,237.862 339.100 M127.711 343.700 C 127.108 344.480,126.788 345.600,127.170 345.600 C 127.359 345.600,127.622 345.319,127.754 344.975 C 127.886 344.631,128.176 344.461,128.397 344.598 C 128.619 344.735,128.800 344.657,128.800 344.424 C 128.800 344.191,128.609 344.000,128.376 344.000 C 128.143 344.000,128.064 343.820,128.200 343.600 C 128.554 343.027,128.171 343.105,127.711 343.700 M128.225 345.432 C 127.877 345.780,127.725 346.275,127.887 346.532 C 128.087 346.850,128.226 346.775,128.320 346.300 C 128.396 345.915,128.636 345.600,128.853 345.600 C 129.070 345.600,129.136 345.780,129.000 346.000 C 128.864 346.220,128.943 346.400,129.176 346.400 C 129.409 346.400,129.600 346.209,129.600 345.976 C 129.600 345.743,129.783 345.666,130.007 345.804 C 130.230 345.942,130.317 346.210,130.200 346.400 C 129.973 346.767,130.730 347.404,131.032 347.101 C 131.273 346.860,129.632 344.800,129.200 344.800 C 129.011 344.800,128.573 345.085,128.225 345.432 M286.369 345.700 C 286.107 346.558,286.154 347.200,286.478 347.200 C 286.702 347.200,286.782 346.930,286.655 346.600 C 286.512 346.227,286.658 346.000,287.042 346.000 C 288.010 346.000,287.516 347.382,286.496 347.528 C 285.526 347.666,285.324 348.182,286.062 348.638 C 286.348 348.815,286.415 348.748,286.238 348.462 C 286.058 348.170,286.256 348.000,286.776 348.000 C 287.333 348.000,287.600 348.259,287.600 348.800 C 287.600 349.240,287.791 349.600,288.024 349.600 C 288.257 349.600,288.363 349.463,288.259 349.296 C 288.156 349.128,288.325 348.644,288.635 348.219 C 288.999 347.723,289.200 347.641,289.200 347.990 C 289.200 348.289,289.308 348.425,289.440 348.293 C 289.859 347.874,289.198 347.226,288.589 347.459 C 288.268 347.583,288.121 347.873,288.264 348.104 C 288.422 348.359,288.329 348.404,288.027 348.217 C 287.683 348.004,287.658 347.782,287.946 347.494 C 288.484 346.956,287.796 345.600,286.986 345.600 C 286.664 345.600,286.386 345.645,286.369 345.700 M145.232 365.924 C 145.214 366.214,144.995 366.320,144.738 366.162 C 144.466 365.993,144.384 366.051,144.540 366.303 C 144.836 366.782,145.816 366.733,146.288 366.214 C 146.460 366.026,146.390 365.992,146.134 366.138 C 145.878 366.285,145.577 366.179,145.466 365.902 C 145.309 365.513,145.256 365.518,145.232 365.924 M142.000 366.500 C 142.000 366.665,142.349 366.800,142.776 366.800 C 143.203 366.800,143.636 366.665,143.738 366.500 C 143.840 366.335,143.491 366.200,142.962 366.200 C 142.433 366.200,142.000 366.335,142.000 366.500 M156.400 375.624 C 156.400 375.857,156.258 375.960,156.085 375.852 C 155.912 375.745,155.731 376.125,155.684 376.697 C 155.636 377.268,155.733 377.600,155.899 377.434 C 156.064 377.269,156.208 376.923,156.218 376.667 C 156.228 376.410,156.423 376.235,156.652 376.278 C 156.880 376.321,157.067 376.096,157.067 375.778 C 157.067 375.460,156.917 375.200,156.733 375.200 C 156.550 375.200,156.400 375.391,156.400 375.624 M161.345 377.000 C 161.560 377.562,160.890 377.830,159.800 377.616 C 159.580 377.573,159.929 378.092,160.575 378.769 C 161.221 379.446,161.986 380.000,162.275 380.000 C 162.759 380.000,162.978 380.519,162.837 381.330 C 162.806 381.511,162.954 381.552,163.166 381.421 C 163.377 381.290,163.482 380.827,163.398 380.392 C 163.306 379.911,163.463 379.600,163.799 379.600 C 164.104 379.600,164.476 379.401,164.626 379.157 C 164.813 378.855,164.613 378.805,164.000 379.000 C 163.330 379.213,163.180 379.156,163.412 378.781 C 163.616 378.451,163.562 378.376,163.255 378.566 C 162.998 378.725,162.891 379.023,163.017 379.228 C 163.144 379.432,163.037 379.600,162.781 379.600 C 162.524 379.600,162.404 379.367,162.513 379.083 C 162.622 378.799,162.467 378.233,162.168 377.824 C 161.870 377.416,161.720 376.929,161.836 376.741 C 161.952 376.553,161.837 376.400,161.581 376.400 C 161.324 376.400,161.218 376.670,161.345 377.000 M164.800 380.167 C 164.800 380.478,164.575 380.837,164.300 380.963 C 164.025 381.089,164.232 381.084,164.761 380.950 C 165.531 380.756,165.672 380.835,165.473 381.354 C 165.337 381.709,165.380 382.000,165.570 382.000 C 166.265 382.000,166.242 380.980,165.531 380.300 C 164.963 379.756,164.800 379.726,164.800 380.167 " stroke="none" fill="#24dc9c" fill-rule="evenodd"></path><path id="path2" d="M167.300 14.276 C 167.685 14.376,168.315 14.376,168.700 14.276 C 169.085 14.175,168.770 14.093,168.000 14.093 C 167.230 14.093,166.915 14.175,167.300 14.276 M185.700 14.296 C 186.965 14.375,189.035 14.375,190.300 14.296 C 191.565 14.216,190.530 14.151,188.000 14.151 C 185.470 14.151,184.435 14.216,185.700 14.296 M200.900 14.294 C 201.945 14.376,203.655 14.376,204.700 14.294 C 205.745 14.212,204.890 14.144,202.800 14.144 C 200.710 14.144,199.855 14.212,200.900 14.294 M110.128 70.000 C 110.128 71.430,110.201 72.015,110.289 71.300 C 110.378 70.585,110.378 69.415,110.289 68.700 C 110.201 67.985,110.128 68.570,110.128 70.000 M69.507 118.290 C 70.226 118.379,71.306 118.377,71.907 118.286 C 72.508 118.195,71.920 118.122,70.600 118.124 C 69.280 118.126,68.788 118.201,69.507 118.290 M328.307 118.290 C 329.026 118.379,330.106 118.377,330.707 118.286 C 331.308 118.195,330.720 118.122,329.400 118.124 C 328.080 118.126,327.588 118.201,328.307 118.290 M14.093 173.600 C 14.093 174.370,14.175 174.685,14.276 174.300 C 14.376 173.915,14.376 173.285,14.276 172.900 C 14.175 172.515,14.093 172.830,14.093 173.600 M274.093 184.800 C 274.093 185.570,274.175 185.885,274.276 185.500 C 274.376 185.115,274.376 184.485,274.276 184.100 C 274.175 183.715,274.093 184.030,274.093 184.800 M14.148 192.800 C 14.148 195.110,14.214 196.055,14.295 194.900 C 14.376 193.745,14.376 191.855,14.295 190.700 C 14.214 189.545,14.148 190.490,14.148 192.800 M256.100 202.276 C 256.485 202.376,257.115 202.376,257.500 202.276 C 257.885 202.175,257.570 202.093,256.800 202.093 C 256.030 202.093,255.715 202.175,256.100 202.276 M14.148 207.200 C 14.148 209.510,14.214 210.455,14.295 209.300 C 14.376 208.145,14.376 206.255,14.295 205.100 C 14.214 203.945,14.148 204.890,14.148 207.200 M149.305 206.287 C 149.914 206.379,150.814 206.377,151.305 206.282 C 151.797 206.187,151.300 206.111,150.200 206.114 C 149.100 206.117,148.697 206.195,149.305 206.287 M14.093 226.000 C 14.093 226.770,14.175 227.085,14.276 226.700 C 14.376 226.315,14.376 225.685,14.276 225.300 C 14.175 224.915,14.093 225.230,14.093 226.000 M126.114 230.200 C 126.117 231.300,126.195 231.703,126.287 231.095 C 126.379 230.486,126.377 229.586,126.282 229.095 C 126.187 228.603,126.111 229.100,126.114 230.200 M126.128 330.400 C 126.128 331.830,126.201 332.415,126.289 331.700 C 126.378 330.985,126.378 329.815,126.289 329.100 C 126.201 328.385,126.128 328.970,126.128 330.400 " stroke="none" fill="#28dc94" fill-rule="evenodd"></path><path id="path3" d="M167.300 14.276 C 167.685 14.376,168.315 14.376,168.700 14.276 C 169.085 14.175,168.770 14.093,168.000 14.093 C 167.230 14.093,166.915 14.175,167.300 14.276 M185.700 14.296 C 186.965 14.375,189.035 14.375,190.300 14.296 C 191.565 14.216,190.530 14.151,188.000 14.151 C 185.470 14.151,184.435 14.216,185.700 14.296 M200.900 14.294 C 201.945 14.376,203.655 14.376,204.700 14.294 C 205.745 14.212,204.890 14.144,202.800 14.144 C 200.710 14.144,199.855 14.212,200.900 14.294 M110.128 70.000 C 110.128 71.430,110.201 72.015,110.289 71.300 C 110.378 70.585,110.378 69.415,110.289 68.700 C 110.201 67.985,110.128 68.570,110.128 70.000 M69.507 118.290 C 70.226 118.379,71.306 118.377,71.907 118.286 C 72.508 118.195,71.920 118.122,70.600 118.124 C 69.280 118.126,68.788 118.201,69.507 118.290 M328.307 118.290 C 329.026 118.379,330.106 118.377,330.707 118.286 C 331.308 118.195,330.720 118.122,329.400 118.124 C 328.080 118.126,327.588 118.201,328.307 118.290 M14.093 173.600 C 14.093 174.370,14.175 174.685,14.276 174.300 C 14.376 173.915,14.376 173.285,14.276 172.900 C 14.175 172.515,14.093 172.830,14.093 173.600 M274.093 184.800 C 274.093 185.570,274.175 185.885,274.276 185.500 C 274.376 185.115,274.376 184.485,274.276 184.100 C 274.175 183.715,274.093 184.030,274.093 184.800 M14.148 192.800 C 14.148 195.110,14.214 196.055,14.295 194.900 C 14.376 193.745,14.376 191.855,14.295 190.700 C 14.214 189.545,14.148 190.490,14.148 192.800 M256.100 202.276 C 256.485 202.376,257.115 202.376,257.500 202.276 C 257.885 202.175,257.570 202.093,256.800 202.093 C 256.030 202.093,255.715 202.175,256.100 202.276 M14.148 207.200 C 14.148 209.510,14.214 210.455,14.295 209.300 C 14.376 208.145,14.376 206.255,14.295 205.100 C 14.214 203.945,14.148 204.890,14.148 207.200 M149.305 206.287 C 149.914 206.379,150.814 206.377,151.305 206.282 C 151.797 206.187,151.300 206.111,150.200 206.114 C 149.100 206.117,148.697 206.195,149.305 206.287 M14.093 226.000 C 14.093 226.770,14.175 227.085,14.276 226.700 C 14.376 226.315,14.376 225.685,14.276 225.300 C 14.175 224.915,14.093 225.230,14.093 226.000 M126.114 230.200 C 126.117 231.300,126.195 231.703,126.287 231.095 C 126.379 230.486,126.377 229.586,126.282 229.095 C 126.187 228.603,126.111 229.100,126.114 230.200 M126.128 330.400 C 126.128 331.830,126.201 332.415,126.289 331.700 C 126.378 330.985,126.378 329.815,126.289 329.100 C 126.201 328.385,126.128 328.970,126.128 330.400 " stroke="none" fill="#28dc94" fill-rule="evenodd"></path><path id="path4" d="M167.300 14.276 C 167.685 14.376,168.315 14.376,168.700 14.276 C 169.085 14.175,168.770 14.093,168.000 14.093 C 167.230 14.093,166.915 14.175,167.300 14.276 M185.700 14.296 C 186.965 14.375,189.035 14.375,190.300 14.296 C 191.565 14.216,190.530 14.151,188.000 14.151 C 185.470 14.151,184.435 14.216,185.700 14.296 M200.900 14.294 C 201.945 14.376,203.655 14.376,204.700 14.294 C 205.745 14.212,204.890 14.144,202.800 14.144 C 200.710 14.144,199.855 14.212,200.900 14.294 M110.128 70.000 C 110.128 71.430,110.201 72.015,110.289 71.300 C 110.378 70.585,110.378 69.415,110.289 68.700 C 110.201 67.985,110.128 68.570,110.128 70.000 M69.507 118.290 C 70.226 118.379,71.306 118.377,71.907 118.286 C 72.508 118.195,71.920 118.122,70.600 118.124 C 69.280 118.126,68.788 118.201,69.507 118.290 M328.307 118.290 C 329.026 118.379,330.106 118.377,330.707 118.286 C 331.308 118.195,330.720 118.122,329.400 118.124 C 328.080 118.126,327.588 118.201,328.307 118.290 M14.093 173.600 C 14.093 174.370,14.175 174.685,14.276 174.300 C 14.376 173.915,14.376 173.285,14.276 172.900 C 14.175 172.515,14.093 172.830,14.093 173.600 M274.093 184.800 C 274.093 185.570,274.175 185.885,274.276 185.500 C 274.376 185.115,274.376 184.485,274.276 184.100 C 274.175 183.715,274.093 184.030,274.093 184.800 M14.148 192.800 C 14.148 195.110,14.214 196.055,14.295 194.900 C 14.376 193.745,14.376 191.855,14.295 190.700 C 14.214 189.545,14.148 190.490,14.148 192.800 M256.100 202.276 C 256.485 202.376,257.115 202.376,257.500 202.276 C 257.885 202.175,257.570 202.093,256.800 202.093 C 256.030 202.093,255.715 202.175,256.100 202.276 M14.148 207.200 C 14.148 209.510,14.214 210.455,14.295 209.300 C 14.376 208.145,14.376 206.255,14.295 205.100 C 14.214 203.945,14.148 204.890,14.148 207.200 M149.305 206.287 C 149.914 206.379,150.814 206.377,151.305 206.282 C 151.797 206.187,151.300 206.111,150.200 206.114 C 149.100 206.117,148.697 206.195,149.305 206.287 M14.093 226.000 C 14.093 226.770,14.175 227.085,14.276 226.700 C 14.376 226.315,14.376 225.685,14.276 225.300 C 14.175 224.915,14.093 225.230,14.093 226.000 M126.114 230.200 C 126.117 231.300,126.195 231.703,126.287 231.095 C 126.379 230.486,126.377 229.586,126.282 229.095 C 126.187 228.603,126.111 229.100,126.114 230.200 M126.128 330.400 C 126.128 331.830,126.201 332.415,126.289 331.700 C 126.378 330.985,126.378 329.815,126.289 329.100 C 126.201 328.385,126.128 328.970,126.128 330.400 " stroke="none" fill="#28dc94" fill-rule="evenodd"></path></g></svg>